<svg width="360" height="140" viewBox="0 0 360 140" fill="none" xmlns="http://www.w3.org/2000/svg">
<path d="M76.8675 97.7795C75.9701 94.4756 75.9701 94.4756 75.9701 88.5685V66.242C75.9701 58.9333 75.3718 56.3302 73.2779 53.6269C70.0871 49.7223 63.6058 47.4196 55.6289 47.4196C48.4496 47.4196 42.3672 49.1216 38.0796 52.4255C34.9885 54.8284 33.4928 57.5316 32.4957 62.8379L45.8571 64.1395C46.4554 59.4339 49.4467 56.9309 54.2329 56.9309C59.1188 56.9309 61.5119 59.3337 61.5119 64.1395V66.9428C50.4438 67.8439 45.8571 68.6448 41.9683 70.0465C34.8888 72.7497 31 77.9559 31 84.9643C31 93.3743 37.0824 98.7807 46.4554 98.7807C53.5349 98.7807 57.4237 96.5781 62.2099 90.0703C62.1101 90.671 62.1101 91.2718 62.1101 91.3719C62.1101 93.975 62.2099 94.5757 62.8081 97.7795H76.8675ZM61.5119 78.6567C61.5119 84.8641 57.6231 89.6699 52.4381 89.6699C48.7487 89.6699 46.2559 87.0668 46.2559 83.3623C46.2559 79.758 48.4496 77.2551 52.7372 75.8534C55.23 74.9523 57.0248 74.652 61.5119 74.1514V78.6567Z" fill="#1C0D36"/>
<path d="M83.9486 97.7795H98.4069V31H83.9486V97.7795Z" fill="#1C0D36"/>
<path d="M150.521 75.553C150.422 66.8427 149.424 62.7378 146.533 57.8319C142.843 51.4243 135.465 47.4196 127.288 47.4196C113.229 47.4196 103.557 58.1323 103.557 73.5507C103.557 88.6687 113.229 98.7807 127.787 98.7807C134.966 98.7807 140.251 96.6782 144.539 92.0727C147.231 89.1693 148.527 86.8665 150.222 81.6603L137.06 80.7592C136.063 85.7652 133.072 88.4684 128.285 88.4684C122.602 88.4684 118.813 84.2634 118.813 77.8558C118.813 77.4553 118.813 76.354 118.913 75.553H150.521ZM118.913 67.0429C119.61 60.1347 122.502 56.9309 127.986 56.9309C133.271 56.9309 135.664 59.9345 136.262 67.0429H118.913Z" fill="#1C0D36"/>
<path d="M194.948 48.4207H182.484L174.707 61.7366L166.83 48.4207H150.277L164.337 71.2479L148.084 97.7795H160.548L170.519 80.7592L180.789 97.7795H197.341L180.789 71.2479L194.948 48.4207Z" fill="#1C0D36"/>
<path d="M239 48.4207H228.431L219.357 77.8558L209.984 48.4207H194.528L212.477 97.7795C211.081 102.585 209.386 103.887 204.5 103.887C202.107 103.887 200.611 103.787 197.42 103.286V114.499C200.611 114.9 202.107 115 204.4 115C210.881 115 214.87 113.298 217.761 109.293C220.154 106.089 220.653 104.788 223.644 95.7771L239 48.4207Z" fill="#1C0D36"/>
<path d="M267.473 32H269.617V83.7108C269.617 87.9632 269.666 90.6412 269.763 91.7449C269.893 92.8486 270.364 93.6926 271.176 94.2769C271.988 94.8612 273.434 95.1533 275.513 95.1533H277.413V97.3932H255.487V95.1533H257.095C259.434 95.1533 260.944 94.8287 261.626 94.1795C262.341 93.4978 262.747 92.7025 262.844 91.7936C262.974 90.8522 263.039 88.1579 263.039 83.7108V49.0422C263.039 44.6599 262.991 42.0143 262.893 41.1054C262.796 40.164 262.373 39.3525 261.626 38.6708C260.912 37.9566 259.401 37.5996 257.095 37.5996H255V35.3597C260.619 35.2624 264.777 34.1424 267.473 32Z" fill="#EB5757"/>
<path d="M317.62 66.6199C315.638 69.022 313.527 70.8236 311.285 72.0247C309.044 73.2258 306.689 73.8263 304.221 73.8263C298.958 73.8263 294.411 71.8462 290.578 67.8859C286.778 63.8932 284.877 58.9266 284.877 52.9862C284.877 47.3379 286.729 42.4363 290.432 38.2813C294.135 34.0938 298.861 32 304.61 32C309.483 32 313.592 33.5419 316.937 36.6257C320.283 39.7095 322.622 43.5724 323.954 48.2144C325.318 52.8239 326 57.6281 326 62.6272C326 72.9174 323.726 81.5521 319.179 88.5313C314.664 95.5104 308.606 99 301.005 99C297.432 99 294.281 98.2209 291.552 96.6628C288.824 95.1046 287.46 93.368 287.46 91.4528C287.46 89.6349 288.402 88.726 290.286 88.726C291.877 88.726 293.242 89.8135 294.378 91.9884C295.938 95.0397 298.585 96.5654 302.32 96.5654C307.453 96.5654 311.302 94.2931 313.868 89.7485C316.434 85.1715 317.717 78.3384 317.717 69.2493C317.717 68.5027 317.685 67.6262 317.62 66.6199ZM317.863 53.6679C317.863 50.5191 317.425 47.4029 316.548 44.319C315.671 41.2028 314.193 38.7519 312.114 36.9666C310.035 35.1812 307.712 34.2885 305.146 34.2885C301.086 34.2885 298.033 35.9116 295.986 39.1577C293.972 42.3714 292.965 47.2243 292.965 53.7166C292.965 57.8067 293.355 61.0041 294.135 63.3089C294.914 65.5812 296.311 67.4801 298.325 69.0058C300.371 70.5315 302.645 71.2943 305.146 71.2943C308.524 71.2943 311.48 70.0283 314.014 67.4964C316.58 64.9319 317.863 60.3224 317.863 53.6679Z" fill="#EB5757"/>
</svg>
