<svg width="122" height="64" viewBox="0 0 122 64" fill="none" xmlns="http://www.w3.org/2000/svg">
<path fill-rule="evenodd" clip-rule="evenodd" d="M30.8115 33.5367C23.1904 29.6614 20.1257 20.2951 23.9689 12.6112C24.8968 10.7659 26.1343 9.18484 27.591 7.90259C25.5366 9.33357 23.798 11.2899 22.598 13.6934C18.7548 21.3767 21.8169 30.7453 29.4367 34.6182C35.2275 37.5617 41.9777 36.4851 46.5754 32.429C42.0704 35.5735 36.0476 36.1953 30.8115 33.5367Z" fill="white"/>
<path fill-rule="evenodd" clip-rule="evenodd" d="M32.6283 30.0735C26.8112 27.1158 24.47 19.9646 27.405 14.0972C28.0724 12.7603 28.9612 11.6102 29.994 10.6599C28.3645 11.759 26.9808 13.2863 26.0321 15.1811C23.0991 21.0454 25.437 28.1977 31.2545 31.155C35.746 33.4403 40.9999 32.5522 44.5102 29.3295C41.0883 31.6383 36.5675 32.0749 32.6283 30.0735Z" fill="white"/>
<path fill-rule="evenodd" clip-rule="evenodd" d="M34.6153 26.4391C30.5983 24.3979 28.9855 19.4597 31.0097 15.4113C31.4296 14.5735 31.9751 13.8395 32.6073 13.2204C31.3777 13.9889 30.336 15.0976 29.6365 16.4954C27.613 20.5466 29.227 25.4824 33.2424 27.5209C36.4245 29.1387 40.1623 28.454 42.583 26.0807C40.2507 27.5405 37.244 27.777 34.6153 26.4391Z" fill="white"/>
<path fill-rule="evenodd" clip-rule="evenodd" d="M12.9781 49.9777C2.95866 44.8845 -1.06857 32.5701 3.98354 22.4701C5.19901 20.0427 6.83179 17.9668 8.74387 16.2798C6.04448 18.1616 3.76174 20.7297 2.18022 23.8921C-2.87189 33.9918 1.15469 46.3062 11.1748 51.3994C18.7824 55.2697 27.6583 53.854 33.7008 48.5219C27.7822 52.6535 19.8621 53.4743 12.9781 49.9777Z" fill="white"/>
<path fill-rule="evenodd" clip-rule="evenodd" d="M15.1396 45.6503C7.49159 41.7615 4.41826 32.3604 8.27726 24.6497C9.15328 22.8931 10.3208 21.3767 11.6818 20.1295C9.53511 21.5774 7.71569 23.5834 6.47 26.0737C2.61396 33.7851 5.68762 43.1882 13.3363 47.0744C19.2414 50.0758 26.1458 48.9088 30.7645 44.6748C26.2651 47.7077 20.3208 48.2804 15.1396 45.6503Z" fill="white"/>
<path fill-rule="evenodd" clip-rule="evenodd" d="M17.305 41.3263C12.0265 38.6432 9.90215 32.1521 12.5674 26.8286C13.1194 25.7269 13.8338 24.7623 14.6674 23.9471C13.0494 24.9578 11.6818 26.4166 10.7608 28.256C8.09818 33.5788 10.2212 40.0679 15.503 42.749C19.6857 44.8779 24.5978 43.9703 27.7822 40.8572C24.7112 42.7715 20.7605 43.0822 17.305 41.3263Z" fill="white"/>
<path fill-rule="evenodd" clip-rule="evenodd" d="M64.7542 42.2793C65.4551 42.2793 66.5223 41.7158 66.7714 40.6429C66.9896 39.6899 66.4287 38.9466 65.5218 38.9466C64.676 38.9466 63.7549 39.63 63.5233 40.6429C63.2686 41.7453 64.1118 42.2793 64.7542 42.2793Z" fill="white"/>
<path fill-rule="evenodd" clip-rule="evenodd" d="M97.2599 42.2793C97.9634 42.2793 99.0287 41.7158 99.2758 40.6429C99.4973 39.6899 98.9357 38.9466 98.0288 38.9466C97.1797 38.9466 96.2606 39.63 96.029 40.6429C95.775 41.7453 96.6175 42.2793 97.2599 42.2793Z" fill="white"/>
<path fill-rule="evenodd" clip-rule="evenodd" d="M48.7704 63.4087H47.0654C46.9753 63.4087 46.9717 63.3627 46.9858 63.3051L47.6703 60.1178C47.6821 60.0628 47.6453 60.0194 47.5872 60.0194H46.9605C46.9053 60.0194 46.8485 60.0628 46.836 60.1178L46.0352 63.8331C46.0231 63.8881 46.0576 63.9341 46.1154 63.9341H48.6538C48.7083 63.9341 48.7635 63.8881 48.7793 63.8331L48.85 63.5108C48.8641 63.4551 48.8269 63.4087 48.7704 63.4087Z" fill="white"/>
<path fill-rule="evenodd" clip-rule="evenodd" d="M51.8053 62.3461H50.8833C50.808 62.3461 50.8061 62.304 50.8356 62.256L51.616 60.9287C51.6456 60.88 51.6772 60.8853 51.6841 60.9403L51.8934 62.2451C51.9009 62.2994 51.8934 62.3461 51.8053 62.3461ZM52.3021 60.1205C52.2893 60.0628 52.2348 60.0194 52.1802 60.0194H51.6982C51.6417 60.0194 51.5713 60.0592 51.5391 60.1069L49.1299 63.846C49.1016 63.8947 49.122 63.9341 49.1766 63.9341H49.7434C49.8006 63.9341 49.8705 63.892 49.8988 63.844L50.464 62.9029C50.4955 62.8546 50.5297 62.8152 50.6234 62.8152H51.874C51.9568 62.8152 51.9837 62.8615 51.9929 62.9192L52.1424 63.8304C52.1526 63.8854 52.2052 63.9341 52.2624 63.9341H52.9268C52.9836 63.9341 53.0204 63.8854 53.0112 63.8331L52.3021 60.1205Z" fill="white"/>
<path fill-rule="evenodd" clip-rule="evenodd" d="M64.7009 62.3461H63.7782C63.7023 62.3461 63.7004 62.304 63.728 62.256L64.513 60.9287C64.5412 60.88 64.5715 60.8853 64.5784 60.9403L64.7857 62.2451C64.7939 62.2994 64.789 62.3461 64.7009 62.3461ZM65.1951 60.1205C65.1862 60.0628 65.1284 60.0194 65.0745 60.0194H64.5938C64.5379 60.0194 64.464 60.0592 64.4328 60.1069L62.0229 63.846C61.9927 63.8947 62.0137 63.9341 62.0702 63.9341H62.6364C62.6916 63.9341 62.7642 63.892 62.7934 63.844L63.3576 62.9029C63.3879 62.8546 63.423 62.8152 63.5137 62.8152H64.7683C64.8491 62.8152 64.878 62.8615 64.8889 62.9192L65.0377 63.8304C65.0469 63.8854 65.0995 63.9341 65.156 63.9341H65.8221C65.8786 63.9341 65.9144 63.8854 65.9042 63.8331L65.1951 60.1205Z" fill="white"/>
<path fill-rule="evenodd" clip-rule="evenodd" d="M61.8757 60.0194H61.3289C61.2721 60.0194 61.1994 60.0592 61.1659 60.1049L59.4145 62.731C59.3823 62.7764 59.3465 62.7691 59.3304 62.7168L58.6584 60.1178C58.6463 60.0628 58.5884 60.0194 58.5306 60.0194H58.0262C57.969 60.0194 57.9096 60.0628 57.8948 60.1178L56.837 63.8351C56.8236 63.8881 56.8538 63.9341 56.911 63.9341H57.3799C57.4357 63.9341 57.4962 63.8881 57.5064 63.8331L58.1156 61.1695C58.1291 61.1149 58.1488 61.1149 58.1636 61.1695L58.7931 63.8331C58.8073 63.8881 58.8631 63.9268 58.9197 63.9199L59.15 63.89C59.2078 63.8834 59.2778 63.839 59.3097 63.791L60.9747 61.255C61.0069 61.207 61.023 61.2142 61.0131 61.2692L60.605 63.8304C60.5981 63.8854 60.6333 63.9341 60.6904 63.9341H61.3046C61.3644 63.9341 61.4143 63.8854 61.4232 63.8304L61.9624 60.1205C61.972 60.0648 61.9329 60.0194 61.8757 60.0194Z" fill="white"/>
<path fill-rule="evenodd" clip-rule="evenodd" d="M83.2017 60.0194H82.6053C82.5501 60.0194 82.4791 60.0592 82.4509 60.1069L80.849 62.8383C80.8194 62.887 80.7872 62.8797 80.7764 62.8248L80.3058 60.1205C80.295 60.0628 80.2411 60.0194 80.1852 60.0194H79.5139C79.4574 60.0194 79.4196 60.0628 79.4268 60.1205L80.1166 63.8304C80.1258 63.8854 80.179 63.9341 80.2358 63.9341H80.6614C80.7185 63.9341 80.7892 63.8947 80.8214 63.846L83.2497 60.1049C83.2799 60.0592 83.2589 60.0194 83.2017 60.0194Z" fill="white"/>
<path fill-rule="evenodd" clip-rule="evenodd" d="M84.6045 60.0194H83.9775C83.9203 60.0194 83.8651 60.0628 83.8517 60.1178L83.0509 63.8331C83.0381 63.8881 83.0778 63.9341 83.1304 63.9341H83.7652C83.8224 63.9341 83.8779 63.8881 83.8908 63.8331L84.685 60.1178C84.6971 60.0628 84.6623 60.0194 84.6045 60.0194Z" fill="white"/>
<path fill-rule="evenodd" clip-rule="evenodd" d="M88.7615 60.1529C88.6439 60.0926 88.1763 59.9502 87.6292 59.9502C86.163 59.9502 85.0819 60.9771 85.0819 62.2716C85.0819 63.098 85.5603 64 86.9733 64C87.3952 64 87.8069 63.941 88.0593 63.8711C88.216 63.835 88.2564 63.7155 88.2719 63.6598L88.3705 63.3355C88.4089 63.2067 88.2995 63.1792 88.2466 63.1928C88.1966 63.2067 88.101 63.2663 88.0389 63.2968C87.6673 63.4856 87.3147 63.5084 87.1369 63.5084C86.7962 63.5084 86.553 63.4203 86.3424 63.2451C86.1094 63.0566 85.9583 62.7492 85.9583 62.2282C85.9583 61.5379 86.252 60.4454 87.4695 60.4454C87.6673 60.4454 88.0484 60.4597 88.404 60.6756C88.5509 60.7624 88.5913 60.7747 88.6511 60.7674C88.7004 60.7624 88.7428 60.7422 88.7575 60.6892L88.8127 60.2983C88.8196 60.24 88.8256 60.1877 88.7615 60.1529Z" fill="white"/>
<path fill-rule="evenodd" clip-rule="evenodd" d="M92.304 60.0194H89.8935C89.8383 60.0194 89.7811 60.0628 89.7689 60.1178L88.9655 63.8331C88.957 63.8881 88.9931 63.9341 89.0483 63.9341H91.6327C91.6873 63.9341 91.7425 63.8854 91.7533 63.8331L91.8207 63.5108C91.8328 63.4551 91.7964 63.4087 91.7385 63.4087H89.9963C89.9056 63.4087 89.907 63.3627 89.9165 63.3051L90.1495 62.2424C90.1606 62.1874 90.1751 62.1431 90.2733 62.1431H91.6731C91.7283 62.1431 91.7862 62.0977 91.799 62.042L91.8631 61.7495C91.8765 61.6945 91.8427 61.6485 91.7829 61.6485H90.3788C90.2848 61.6485 90.2848 61.6021 90.2973 61.5471L90.4928 60.6458C90.5096 60.5739 90.5372 60.5425 90.6167 60.5425H92.1943C92.2495 60.5425 92.306 60.4978 92.3201 60.4428L92.3842 60.1178C92.3983 60.0628 92.3606 60.0194 92.304 60.0194Z" fill="white"/>
<path fill-rule="evenodd" clip-rule="evenodd" d="M74.8962 60.0194H72.4846C72.4275 60.0194 72.3729 60.0628 72.3608 60.1178L71.5596 63.8331C71.5475 63.8881 71.5846 63.9341 71.6411 63.9341H74.2219C74.2784 63.9341 74.333 63.8854 74.3471 63.8331L74.4131 63.5108C74.4246 63.4551 74.3898 63.4087 74.3297 63.4087H72.5904C72.4981 63.4087 72.4981 63.3627 72.5096 63.3051L72.7426 62.2424C72.7534 62.1874 72.7675 62.1431 72.8658 62.1431H74.2649C74.3218 62.1431 74.3777 62.0977 74.3898 62.042L74.4555 61.7495C74.467 61.6945 74.4315 61.6485 74.3763 61.6485H72.9703C72.8773 61.6485 72.8773 61.6021 72.8881 61.5471L73.0846 60.6458C73.1007 60.5739 73.1293 60.5425 73.2079 60.5425H74.7841C74.8423 60.5425 74.8968 60.4978 74.9087 60.4428L74.9773 60.1178C74.9888 60.0628 74.9514 60.0194 74.8962 60.0194Z" fill="white"/>
<path fill-rule="evenodd" clip-rule="evenodd" d="M76.8132 61.8208C76.6348 61.8208 76.5438 61.8098 76.4514 61.8025L76.7169 60.5832C76.7311 60.5282 76.7396 60.4848 76.8408 60.4795C77.1188 60.4776 77.9133 60.404 77.8608 60.9953C77.7845 61.8486 77.0455 61.8208 76.8132 61.8208ZM78.6628 63.6164C78.1259 63.5913 77.9961 63.3471 77.5841 62.1106C78.1962 61.9817 78.7348 61.63 78.7348 60.933C78.7348 60.6432 78.6136 60.415 78.4539 60.2772C78.2215 60.0791 78.0135 60.0016 77.3396 60.0016C76.5733 60.0016 76.1317 60.0145 76.1317 60.0145C76.0745 60.0171 76.0183 60.0628 76.0072 60.1178L75.2057 63.8331C75.1942 63.8881 75.2307 63.9341 75.2852 63.9341H75.9201C75.9773 63.9341 76.0328 63.8854 76.0433 63.8331L76.3492 62.3292C76.3627 62.2742 76.4172 62.2335 76.4744 62.2355C76.4744 62.2355 76.6966 62.2464 76.8178 62.2355C77.1438 63.3077 77.3646 63.9961 78.1834 63.9961C78.306 63.9961 78.4223 63.9775 78.4851 63.9566C78.5751 63.9341 78.6277 63.846 78.6527 63.7754L78.6635 63.7476C78.6829 63.692 78.7026 63.6191 78.6628 63.6164Z" fill="white"/>
<path fill-rule="evenodd" clip-rule="evenodd" d="M44.6476 61.7658C44.4806 61.8691 44.317 61.9205 43.8852 61.9205C43.7768 61.9205 43.739 61.9205 43.649 61.9089L43.9332 60.5882C43.9424 60.5325 44.0012 60.4868 44.0577 60.4868C44.0577 60.4868 44.5611 60.4749 44.7015 60.512C44.9594 60.5759 45.0386 60.827 45.0386 61.0258C45.0386 61.1238 45.0199 61.5309 44.6476 61.7658ZM45.7431 60.3947C45.4851 60.0565 45.0737 60.0016 44.4629 60.0016C44.2184 60.0016 43.3223 60.0171 43.3223 60.0171C43.2665 60.0194 43.2093 60.0628 43.1972 60.1178L42.3951 63.8331C42.3855 63.8881 42.4207 63.9341 42.4759 63.9341H43.1101C43.1669 63.9341 43.2234 63.8854 43.2369 63.8331L43.5156 62.5028C43.5264 62.4471 43.5593 62.3895 43.6408 62.3965C43.6408 62.3965 44.6844 62.528 45.3028 62.0854C45.6527 61.835 45.8903 61.5379 45.9146 60.9701C45.9215 60.834 45.8896 60.5998 45.7431 60.3947Z" fill="white"/>
<path fill-rule="evenodd" clip-rule="evenodd" d="M56.5886 60.1374C56.4648 60.0701 56.0245 59.9502 55.5542 59.9502C54.7397 59.9502 54.1281 60.3785 54.1281 61.0917C54.1281 61.5491 54.372 61.8098 54.9161 62.2172C55.314 62.5117 55.4741 62.6727 55.4741 62.935C55.4741 63.1563 55.3255 63.5084 54.7886 63.5084C54.3766 63.5084 54.0003 63.2689 53.8636 63.1494C53.8143 63.1053 53.7457 63.1099 53.7168 63.1494C53.6132 63.2895 53.5571 63.676 53.5544 63.7055C53.5498 63.736 53.5571 63.791 53.6132 63.8162C53.8406 63.9198 54.413 64 54.8258 64C56.0997 64 56.3011 63.1258 56.3011 62.7969C56.3011 62.2537 55.9321 61.9456 55.6081 61.7041C55.1734 61.3835 54.9463 61.1934 54.9463 60.9125C54.9463 60.8224 54.992 60.4653 55.5227 60.4149C55.8211 60.3878 56.1726 60.4931 56.4013 60.6478C56.4493 60.6803 56.5564 60.726 56.6816 60.4795C56.8019 60.2427 56.6534 60.1685 56.5886 60.1374Z" fill="white"/>
<path fill-rule="evenodd" clip-rule="evenodd" d="M71.1946 60.1374C71.0681 60.0701 70.6291 59.9502 70.1599 59.9502C69.3456 59.9502 68.7321 60.3785 68.7321 61.0917C68.7321 61.5491 68.9766 61.8098 69.5207 62.2172C69.9206 62.5117 70.079 62.6727 70.079 62.935C70.079 63.1563 69.9308 63.5084 69.3923 63.5084C68.9841 63.5084 68.6069 63.2689 68.4689 63.1494C68.4196 63.1053 68.3496 63.1099 68.3237 63.1494C68.2172 63.2895 68.1613 63.676 68.1594 63.7055C68.1551 63.736 68.1613 63.791 68.2172 63.8162C68.4439 63.9198 69.0203 64 69.4297 64C70.7037 64 70.9044 63.1258 70.9044 62.7969C70.9044 62.2537 70.5394 61.9456 70.2128 61.7041C69.782 61.3835 69.5529 61.1934 69.5529 60.9125C69.5529 60.8224 69.5976 60.4653 70.1299 60.4149C70.425 60.3878 70.7786 60.4931 71.0073 60.6478C71.0546 60.6803 71.1575 60.726 71.2876 60.4795C71.4069 60.2427 71.258 60.1685 71.1946 60.1374Z" fill="white"/>
<path fill-rule="evenodd" clip-rule="evenodd" d="M95.5407 60.1374C95.4175 60.0701 94.9791 59.9502 94.5086 59.9502C93.6924 59.9502 93.0799 60.3785 93.0799 61.0917C93.0799 61.5491 93.3233 61.8098 93.8718 62.2172C94.2667 62.5117 94.4284 62.6727 94.4284 62.935C94.4284 63.1563 94.2795 63.5084 93.7397 63.5084C93.3329 63.5084 92.9543 63.2689 92.8163 63.1494C92.7674 63.1053 92.6987 63.1099 92.6724 63.1494C92.5666 63.2895 92.5094 63.676 92.5068 63.7055C92.5048 63.736 92.512 63.791 92.564 63.8162C92.7923 63.9198 93.368 64 93.7775 64C95.0501 64 95.2532 63.1258 95.2532 62.7969C95.2532 62.2537 94.8878 61.9456 94.5638 61.7041C94.1274 61.3835 93.8994 61.1934 93.8994 60.9125C93.8994 60.8224 93.9464 60.4653 94.4764 60.4149C94.7738 60.3878 95.128 60.4931 95.3557 60.6478C95.4027 60.6803 95.5072 60.726 95.635 60.4795C95.7576 60.2427 95.6074 60.1685 95.5407 60.1374Z" fill="white"/>
<path fill-rule="evenodd" clip-rule="evenodd" d="M60.0106 57.6517H62.4491C62.5427 57.6517 62.6364 57.5778 62.6594 57.4854L65.4744 45.2608C65.4942 45.1694 65.435 45.0935 65.3401 45.0935H62.9032C62.8096 45.0935 62.7139 45.1694 62.6916 45.2608L59.8785 57.4854C59.8578 57.5778 59.917 57.6517 60.0106 57.6517Z" fill="white"/>
<path fill-rule="evenodd" clip-rule="evenodd" d="M76.9456 51.7304C76.3545 54.2896 74.4772 56.225 72.2254 56.225C69.5302 56.225 68.8412 53.2485 69.4103 50.7777C70.2062 47.3254 72.8425 46.5507 74.1006 46.5507C77.2896 46.5507 77.3626 49.9151 76.9456 51.7304ZM74.9471 44.7672C70.9692 44.7672 67.1788 47.3857 66.2187 51.5508C65.3979 55.1226 67.1815 58.0386 71.3375 58.0386C75.58 58.0386 79.1919 55.0627 80.0968 51.1368C80.7346 48.3685 79.8668 44.7672 74.9471 44.7672Z" fill="white"/>
<path fill-rule="evenodd" clip-rule="evenodd" d="M81.4881 57.6517H90.1452C90.2402 57.6517 90.3332 57.5778 90.3535 57.4854L90.7426 55.7967C90.7643 55.705 90.7041 55.6288 90.6118 55.6288H84.9672C84.8742 55.6288 84.8138 55.5556 84.8338 55.4605L88.6363 38.9506C88.6554 38.8595 88.5978 38.781 88.5029 38.781H85.8298C85.7381 38.781 85.6425 38.8595 85.6211 38.9506L81.356 57.4854C81.3353 57.5778 81.3944 57.6517 81.4881 57.6517Z" fill="white"/>
<path fill-rule="evenodd" clip-rule="evenodd" d="M94.9538 57.6517C95.0478 57.6517 95.1434 57.5778 95.1618 57.4854L97.9788 45.2608C97.9999 45.1694 97.9414 45.0935 97.8438 45.0935H95.4076C95.3133 45.0935 95.2197 45.1694 95.1986 45.2608L92.3816 57.4854C92.3606 57.5778 92.422 57.6517 92.5147 57.6517H94.9538Z" fill="white"/>
<path fill-rule="evenodd" clip-rule="evenodd" d="M110.769 39.4534C111.527 39.6551 111.753 39.7154 112.073 39.5839C112.402 39.4481 112.958 38.7117 112.978 38.4596C113.009 37.9737 112.115 37.5067 110.206 37.35C108.549 37.2168 106.631 37.874 105.49 38.8061C103.659 40.2954 103.131 41.9616 102.219 44.9537C102.169 45.1051 102.101 45.1213 102.01 45.1213H100.277C100.182 45.1213 100.087 45.1992 100.068 45.2886L99.7315 46.7414C99.7122 46.8332 99.7726 46.9064 99.8643 46.9064H101.455C101.577 46.9064 101.618 46.9637 101.585 47.077L97.7258 63.683C97.7054 63.7774 97.6456 63.9546 97.8421 63.952C100.197 63.9063 100.391 63.3498 100.536 62.8754L104.366 47.077C104.399 46.9637 104.44 46.9087 104.579 46.9064H107.907C108.001 46.9064 108.096 46.8332 108.117 46.7414L108.458 45.2608C108.48 45.1694 108.419 45.0935 108.326 45.0935H104.993C104.842 45.0915 104.832 45.0521 104.862 44.9259L105.097 43.9017C105.651 41.4925 106.18 39.1996 109.078 39.1996C109.838 39.1996 110.34 39.3401 110.769 39.4534Z" fill="white"/>
<path fill-rule="evenodd" clip-rule="evenodd" d="M115.467 49.4868C115.451 49.5812 115.406 49.5902 115.324 49.6037L110.4 50.2189C110.308 50.2298 110.274 50.1864 110.295 50.092C110.295 50.092 111.113 46.4582 113.867 46.4304C115.899 46.4122 115.595 48.7505 115.467 49.4868ZM114.602 44.7672C110.859 44.8914 107.864 47.7117 106.953 51.6707C106.289 54.5585 106.811 58.0108 111.141 58.0108C113.571 58.0108 115.832 56.8183 116.716 56.2853C116.891 56.1651 116.95 56.0273 116.95 56.0273C116.99 55.9391 117.008 55.7898 116.998 55.6954L116.911 54.9378C116.901 54.8437 116.814 54.7559 116.723 54.743L116.663 54.7357C115.359 55.4512 113.94 55.8958 112.593 55.8958C110.275 55.8958 109.496 54.3326 109.85 51.9814C109.866 51.8728 109.963 51.8132 110.062 51.7996L117.979 50.9738C118.074 50.9642 118.156 50.8794 118.168 50.785C118.168 50.785 119.804 44.592 114.602 44.7672Z" fill="white"/>
<path fill-rule="evenodd" clip-rule="evenodd" d="M56.3119 43.485C55.5611 47.0518 51.4866 46.6401 51.4866 46.6401C51.3923 46.6401 51.2375 46.6401 51.1438 46.6401H49.4391C49.3435 46.6401 49.2847 46.5636 49.307 46.4718L50.6408 40.6773C50.6592 40.5853 50.7541 40.5071 50.8491 40.5024C50.8491 40.5024 52.6596 40.4196 53.0973 40.4196C54.5343 40.4196 56.9616 40.408 56.3119 43.485ZM55.7602 52.1172C55.2802 54.1994 53.5863 55.4512 51.4475 55.7205C50.3286 55.861 48.5305 55.8129 47.3295 55.8129C47.2352 55.8129 47.1774 55.7232 47.1981 55.6311L48.8243 48.566C48.845 48.4715 48.9419 48.3954 49.0343 48.3954H50.9109C52.96 48.3954 56.6169 48.3954 55.7602 52.1172ZM59.6199 42.9812C60.0037 41.3133 59.3304 40.4196 59.152 40.1831C58.1205 38.8134 56.3113 38.664 54.0272 38.664C53.7558 38.664 49.4135 38.7694 48.2989 38.781C48.2082 38.781 48.1159 38.8134 48.0909 38.9194L43.8139 57.4854C43.7935 57.5778 43.853 57.6517 43.9463 57.6517H49.0431C50.7689 57.6517 53.5544 57.5063 55.4238 56.4917C57.1361 55.5387 58.5513 53.8424 59.0025 51.8797C59.2502 50.8082 59.2026 49.7369 58.6834 48.8151C57.9332 47.3857 56.5314 47.1164 55.6935 46.9366C56.5886 46.6123 58.9972 45.6897 59.6199 42.9812Z" fill="white"/>
<path fill-rule="evenodd" clip-rule="evenodd" d="M30.2421 12.9253C40.4879 17.5375 45.0859 29.6472 40.5109 39.9758C39.4101 42.4581 37.8763 44.6092 36.0453 46.3851C38.6537 44.3774 40.8139 41.7036 42.2462 38.4696C46.8209 28.1414 42.2235 16.032 31.977 11.4198C24.1969 7.91519 15.3972 9.75029 9.61004 15.3629C15.3295 10.9554 23.2026 9.75956 30.2421 12.9253Z" fill="white"/>
<path fill-rule="evenodd" clip-rule="evenodd" d="M28.2846 17.3507C36.1061 20.8719 39.6152 30.1169 36.1203 38.0022C35.3274 39.7986 34.2322 41.3687 32.9306 42.6794C35.0073 41.1312 36.7311 39.0407 37.8592 36.4941C41.3505 28.6081 37.8414 19.3614 30.0199 15.8426C23.9811 13.125 17.1391 14.6179 12.7228 19.0666C17.0757 15.8233 22.9864 14.9694 28.2846 17.3507Z" fill="white"/>
<path fill-rule="evenodd" clip-rule="evenodd" d="M26.3239 21.7728C31.7217 24.2022 34.1467 30.5856 31.7332 36.0296C31.2331 37.1562 30.5647 38.1536 29.7702 39.0072C31.3389 37.9214 32.6372 36.399 33.4711 34.5182C35.882 29.0745 33.4587 22.6934 28.0576 20.266C23.78 18.3378 18.9158 19.4776 15.8799 22.7384C18.8583 20.6804 22.7902 20.1829 26.3239 21.7728Z" fill="white"/>
<path fill-rule="evenodd" clip-rule="evenodd" d="M45.9909 4.51958C53.655 8.30804 56.8229 17.6392 53.0661 25.3659C52.1585 27.2218 50.9391 28.8168 49.4966 30.1159C51.5349 28.6611 53.2518 26.6852 54.4249 24.2684C58.182 16.5425 55.016 7.20863 47.3535 3.4225C41.5302 0.544635 34.7927 1.69737 30.2401 5.80514C34.7103 2.60995 40.7252 1.9203 45.9909 4.51958Z" fill="white"/>
<path fill-rule="evenodd" clip-rule="evenodd" d="M44.2128 8.00262C50.0624 10.8944 52.4829 18.0188 49.6139 23.9193C48.961 25.2638 48.0853 26.4238 47.063 27.3858C48.68 26.2678 50.047 24.7252 50.9743 22.8199C53.8419 16.9224 51.4245 9.79698 45.5748 6.90587C41.0574 4.67162 35.814 5.61898 32.3398 8.88109C35.7361 6.53388 40.2513 6.04596 44.2128 8.00262Z" fill="white"/>
<path fill-rule="evenodd" clip-rule="evenodd" d="M42.2663 11.6593C46.3057 13.655 47.9733 18.5747 45.9941 22.6457C45.5837 23.4884 45.0468 24.2284 44.4215 24.8544C45.6426 24.072 46.6717 22.9517 47.3555 21.5463C49.334 17.4723 47.665 12.5553 43.627 10.5622C40.4271 8.98047 36.6973 9.70789 34.3028 12.1078C36.6187 10.6221 39.6227 10.3512 42.2663 11.6593Z" fill="white"/>
</svg>
