<svg width="158" height="85" viewBox="0 0 158 85" fill="none" xmlns="http://www.w3.org/2000/svg">
<g clip-path="url(#clip0)">
<path d="M3.46641 60.8136C2.01051 58.5896 0.797256 56.2265 0.207962 53.6202C0.103969 53.1337 0.0346405 52.6472 0.0346405 52.1607C0.0346405 51.0139 0.103969 49.8671 0.0346405 48.7204C-0.138681 46.2878 0.519941 44.0985 1.45588 41.9093C3.29309 37.6002 6.17023 34.0556 9.53266 30.8933C15.4949 25.2637 22.4278 21.1284 29.8113 17.6881C39.76 13.0662 50.1593 9.93869 60.8705 7.78415C64.7876 6.98489 68.7393 6.32463 72.7257 5.83812C73.1417 5.80337 73.5577 5.66436 73.939 5.59486C74.1123 5.59486 74.3203 5.62961 74.4936 5.62961C75.8109 5.49061 77.1281 5.31686 78.4453 5.21261C81.1492 5.0041 83.8183 4.76085 86.5221 4.6566C90.6819 4.48284 94.8416 4.41334 98.9666 4.5871C102.398 4.7261 105.795 4.9346 109.227 5.28211C111.827 5.56011 114.427 5.90762 117.027 6.35938C121.464 7.15864 125.901 8.16641 130.199 9.52168C135.988 11.3635 141.569 13.7265 146.561 17.2711C151.414 20.6766 155.261 24.9162 156.995 30.7543C157.203 32.1443 157.445 33.5344 157.48 34.9591C157.584 38.1214 156.787 41.0752 155.469 43.89C154.048 46.9481 152.072 49.5891 149.785 52.0217C145.694 56.435 140.91 59.9101 135.745 62.9334C126.837 68.146 117.339 71.7948 107.425 74.5401C102.225 75.9649 96.9908 77.1116 91.6871 78.0846C91.5138 78.1194 91.3405 78.1541 91.2018 78.2237C91.1325 78.2237 91.0632 78.1889 90.9592 78.2237C88.3593 78.6407 85.7249 78.9882 83.0904 79.2662C80.0399 79.6137 76.9894 79.9264 73.939 80.1349C71.0618 80.3434 68.1847 80.3782 65.3076 80.4477C61.0439 80.5519 56.7801 80.3434 52.5164 80.0654C50.0206 79.8917 47.5248 79.6484 45.0289 79.3357C41.7358 78.9187 38.4427 78.3626 35.2189 77.6329C28.1821 76.0691 21.3532 73.8798 15.0096 70.4395C10.6073 68.007 6.5862 64.9142 3.46641 60.8136ZM66.7288 35.6541C66.7635 35.6541 66.8328 35.6541 66.8675 35.6194C66.9715 35.7584 67.0408 35.8626 67.1448 36.0016C69.5366 39.581 71.8938 43.1603 74.2856 46.7396C74.6669 47.2956 74.6669 47.2956 75.0482 46.7743C77.4401 43.334 79.6239 39.7895 81.9464 36.3144C82.0504 36.1407 82.1198 35.8974 82.4317 35.8279C82.4317 36.1059 82.4317 36.2797 82.4317 36.4882C82.4317 41.666 82.4317 46.8438 82.4317 52.0217C82.4317 53.0295 82.4317 52.9947 83.4023 53.0642C83.957 53.099 84.0956 52.96 84.0956 52.4039C84.061 46.4268 84.0956 40.4497 84.0956 34.4726C84.0956 33.0478 84.0956 33.0478 82.6744 33.0478C82.2238 33.0478 81.9811 33.1869 81.7731 33.5344C79.5199 37.0442 77.2668 40.5192 75.0136 44.029C74.6323 44.5851 74.6323 44.5851 74.251 43.9943C72.0671 40.693 69.8833 37.3917 67.7687 34.0904C67.2488 33.2911 66.7635 32.8393 65.7235 33.0131C65.2036 33.1173 65.0649 33.2216 65.0996 33.7429C65.0996 39.7895 65.0996 45.8013 65.0996 51.8479C65.0996 53.2727 64.8223 53.0295 66.3822 53.0642C66.7288 53.0642 66.8328 52.96 66.8328 52.6124C66.7981 47.6431 66.7981 42.6738 66.7981 37.7044C66.7981 36.9747 66.7635 36.3144 66.7288 35.6541ZM47.5941 42.9865C47.6288 42.9865 47.6288 42.9865 47.5941 42.9865C47.6288 46.1141 47.6288 49.2416 47.5941 52.3692C47.5941 52.8557 47.6981 53.0295 48.2181 53.0295C52.3778 53.0295 56.5722 53.0295 60.7319 53.0642C61.7718 53.0642 61.7371 53.0642 61.8065 51.9869C61.8411 51.4309 61.6331 51.2919 61.1132 51.2919C57.3348 51.3267 53.5564 51.2919 49.7779 51.3267C49.3273 51.3267 49.1887 51.1877 49.1887 50.7359C49.2233 48.5466 49.2233 46.3921 49.1887 44.2028C49.1887 43.7163 49.3273 43.6468 49.7779 43.6468C53.1404 43.6815 56.5375 43.6468 59.8999 43.6468C60.9745 43.6468 60.8012 43.7858 60.8705 42.7085C60.9052 42.1525 60.6972 42.0483 60.1772 42.0483C56.7108 42.083 53.2444 42.083 49.7779 42.083C49.362 42.083 49.1887 42.0135 49.1887 41.527C49.2233 39.3377 49.2233 37.1832 49.1887 34.9939C49.1887 34.5074 49.3273 34.4379 49.7779 34.4379C52.5858 34.4726 55.3936 34.4379 58.2014 34.4379C59.1373 34.4379 60.0733 34.4379 61.0092 34.4379C61.3558 34.4379 61.5292 34.3336 61.4598 33.9861C61.4252 33.8471 61.4252 33.6734 61.4598 33.5344C61.5292 33.0131 61.3212 32.9088 60.8359 32.9088C56.6068 32.9436 52.4124 32.9436 48.1834 32.9088C47.6981 32.9088 47.5594 33.0131 47.5594 33.4996C47.6288 36.6967 47.5941 39.8242 47.5941 42.9865ZM95.4309 53.3075C97.1987 53.3422 98.8626 52.96 100.423 52.2302C102.329 51.3267 103.265 49.6934 103.3 47.6431C103.334 45.5581 102.294 44.0985 100.388 43.2298C98.8626 42.5348 97.2334 42.222 95.6042 41.944C93.975 41.666 92.3804 41.3532 90.8898 40.5887C89.4686 39.859 88.9833 38.5037 89.5726 37.0094C89.8846 36.2102 90.4045 35.5846 91.1672 35.2024C93.8016 33.9861 96.4708 33.7429 99.1399 35.0286C99.9372 35.4109 100.596 35.9669 101.22 36.6272C101.324 36.7662 101.428 37.0094 101.67 36.8357C102.017 36.5577 102.468 36.3839 102.71 35.9669C102.71 35.9321 102.676 35.8626 102.641 35.8279C101.636 34.8201 100.665 33.6734 99.2786 33.2564C96.2975 32.3528 93.3163 32.3876 90.4739 33.7776C88.4633 34.7506 87.4234 36.8009 87.7354 38.9207C87.978 40.6235 89.0526 41.5965 90.5432 42.2568C92.0338 42.917 93.6283 43.1603 95.2229 43.5078C96.7828 43.8553 98.3773 44.0638 99.7986 44.8631C100.561 45.2801 101.185 45.8708 101.462 46.7396C102.017 48.4771 101.081 50.3537 99.2093 51.1182C98.412 51.4309 97.5801 51.6742 96.7134 51.7784C93.663 52.1259 91.0632 51.2572 88.9833 48.9984C88.3247 48.2686 88.3247 48.2339 87.4927 48.7551C86.9034 49.1026 86.9034 49.1026 87.3541 49.6586C89.3993 52.1607 92.1724 53.2727 95.4309 53.3075ZM108.049 42.9865C108.049 39.8242 108.049 36.6967 108.049 33.5344C108.049 33.0478 107.979 32.7698 107.425 32.9436C107.321 32.9783 107.251 32.9436 107.147 32.9436C106.489 32.9783 106.35 33.1173 106.35 33.7776C106.35 39.859 106.35 45.9403 106.35 51.9869C106.35 53.1685 106.177 52.96 107.39 53.0295C107.945 53.0642 108.049 52.8557 108.049 52.3344C108.049 49.2416 108.049 46.1141 108.049 42.9865Z" fill="white"/>
<path d="M157.029 30.7543C155.296 24.9162 151.448 20.7114 146.595 17.2711C141.604 13.7265 136.057 11.3635 130.234 9.52167C125.901 8.16639 121.498 7.15863 117.061 6.35936C114.496 5.9076 111.896 5.5601 109.262 5.28209C105.865 4.93459 102.433 4.69133 99.0013 4.58708C94.8416 4.41333 90.6818 4.48283 86.5568 4.65658C83.853 4.76083 81.1491 5.00409 78.48 5.21259C77.1627 5.31684 75.8455 5.4906 74.5283 5.6296C74.3549 5.66435 74.147 5.6296 73.9736 5.59485C75.9148 5.07359 77.856 4.55233 79.7972 4.06582C83.6796 3.05805 87.6314 2.39779 91.6178 1.73753C94.0789 1.32052 96.5748 1.00777 99.0359 0.729763C100.873 0.521259 102.71 0.382257 104.513 0.243254C109.123 -0.139002 113.768 0.0347506 118.379 0.0695012C120.112 0.0695012 121.845 0.382257 123.578 0.59076C125.519 0.834015 127.495 1.07727 129.437 1.39002C131.759 1.80703 134.082 2.32829 136.369 2.9538C139.524 3.85732 142.505 5.07359 145.417 6.56787C148.398 8.13164 151.032 10.1472 153.286 12.6145C155.365 14.908 156.613 17.6533 157.515 20.6419C158.173 22.8659 157.931 25.0899 157.896 27.3487C157.896 28.148 157.445 28.9125 157.203 29.677C157.133 30.0245 157.029 30.372 157.029 30.7543Z" fill="white" fill-opacity="0.4"/>
<path d="M3.46643 60.8136C6.58622 64.9489 10.6073 68.007 15.079 70.4395C21.4226 73.8798 28.2514 76.0691 35.2883 77.6329C38.5467 78.3627 41.8052 78.9187 45.0983 79.3357C47.5941 79.6484 50.09 79.8917 52.5858 80.0654C56.8495 80.3782 61.1132 80.552 65.3769 80.4477C68.2541 80.3782 71.1312 80.3435 74.0083 80.1349C77.0588 79.9264 80.1093 79.6137 83.1597 79.2662C85.7942 78.9534 88.394 78.6407 91.0285 78.2237C91.0979 78.2237 91.1672 78.2237 91.2712 78.2237C89.5726 78.8492 87.8394 79.3009 86.1062 79.7874C82.3971 80.7952 78.6534 81.6987 74.875 82.3937C72.4484 82.8455 69.9873 83.2973 67.5261 83.61C65.5502 83.8533 63.5744 84.166 61.5985 84.3745C60.1079 84.5483 58.6174 84.6178 57.1268 84.7568C52.5858 85.2085 48.0448 84.9305 43.4691 84.9653C41.7359 84.9653 40.0373 84.722 38.3041 84.5483C36.4669 84.3745 34.6643 84.1313 32.8271 83.8533C30.054 83.4015 27.3155 82.8107 24.6117 82.0115C21.7345 81.1427 18.8921 80.1349 16.2229 78.7102C13.3458 77.1811 10.6766 75.3741 8.45809 72.9763C5.89293 70.1615 4.12505 66.9645 3.60509 63.1419C3.50109 62.3774 3.50109 61.5781 3.46643 60.8136Z" fill="white" fill-opacity="0.4"/>
<path d="M144.342 69.3622C144.342 71.5515 142.609 73.289 140.391 73.289C138.172 73.289 136.404 71.5515 136.404 69.3622C136.404 67.2077 138.172 65.4702 140.391 65.4702C142.609 65.5049 144.342 67.2077 144.342 69.3622ZM137.375 69.3622C137.375 71.0998 138.657 72.455 140.391 72.455C142.089 72.455 143.337 71.0998 143.337 69.397C143.337 67.6594 142.089 66.2694 140.356 66.2694C138.657 66.2694 137.375 67.6594 137.375 69.3622ZM139.767 71.4125H138.865V67.5204C139.212 67.4509 139.697 67.4162 140.356 67.4162C141.084 67.4162 141.43 67.5204 141.708 67.6942C141.916 67.8679 142.089 68.1807 142.089 68.5282C142.089 68.9452 141.742 69.2927 141.292 69.4317V69.4665C141.673 69.6055 141.881 69.8835 141.985 70.4047C142.089 70.9955 142.158 71.2388 142.262 71.3778H141.292C141.188 71.2388 141.118 70.8912 140.98 70.4395C140.91 70.0225 140.668 69.814 140.183 69.814H139.767V71.4125ZM139.801 69.2232H140.217C140.702 69.2232 141.118 69.0495 141.118 68.6672C141.118 68.3197 140.876 68.0764 140.287 68.0764C140.044 68.0764 139.871 68.1112 139.801 68.1112V69.2232V69.2232Z" fill="white" fill-opacity="0.4"/>
</g>
<defs>
<clipPath id="clip0">
<rect width="158" height="85" fill="white"/>
</clipPath>
</defs>
</svg>
