<svg width="262" height="53" viewBox="0 0 262 53" fill="none" xmlns="http://www.w3.org/2000/svg">
<path d="M45.7177 19.3096C45.6393 18.0995 45.742 16.8845 46.0223 15.7048C46.2254 15.2377 46.7331 15.0143 47.5556 15.0143C47.8645 14.9899 48.174 15.0544 48.4475 15.2001C48.7209 15.3459 48.947 15.5668 49.0991 15.8368C49.5055 16.9678 49.6648 18.1727 49.5662 19.3705C49.6478 20.3518 49.5019 21.3387 49.1397 22.2543C48.8892 22.7417 46.7331 23.6624 42.6714 25.0163C38.8805 26.2889 36.5111 27.389 35.5634 28.3164C34.6157 29.2438 34.1384 31.0039 34.1317 33.5966V36.4398C34.1317 39.9464 35.0286 42.2108 36.8225 43.233C38.6227 44.2668 40.6668 44.7997 42.7425 44.7765C44.2147 44.8182 45.6749 44.501 46.9971 43.8525C48.2113 43.2135 49.2212 42.2459 49.9114 41.06V44.1063H61.9645V26.7628C61.9645 21.0358 61.7513 17.2685 61.3248 15.4306C61.0425 14.4358 60.5576 13.5101 59.9006 12.7115C59.2436 11.9129 58.4286 11.2588 57.5068 10.7901C55.3947 9.53098 52.2537 8.90142 48.0836 8.90142C45.1729 8.78956 42.2763 9.35984 39.6251 10.5667C37.8004 11.3581 36.2748 12.7095 35.2689 14.4253C34.4393 16.0594 34.0674 17.8874 34.1926 19.7157V21.249H45.7177V19.3096ZM49.5662 34.7847C49.6564 35.8698 49.5392 36.9622 49.2209 38.0036C49.0515 38.2259 48.8255 38.3988 48.5665 38.5042C48.3076 38.6095 48.0251 38.6436 47.7485 38.6027C47.4325 38.6439 47.1113 38.5919 46.8245 38.453C46.5376 38.3141 46.2976 38.0943 46.134 37.8208C45.7801 36.7028 45.6423 35.5277 45.7278 34.3582C45.6817 33.149 45.8396 31.9406 46.1949 30.7839C46.5131 29.9648 47.6402 28.9324 49.5763 27.6868L49.5662 34.7847Z" fill="white"/>
<path d="M78.6887 9.57157V12.8311C79.5724 11.5815 80.7514 10.5699 82.1208 9.88635C83.5303 9.19854 85.0814 8.85076 86.6496 8.87093C88.1786 8.82475 89.6948 9.16313 91.059 9.85503C92.4233 10.5469 93.5921 11.5702 94.4582 12.8311C95.3943 11.6029 96.5907 10.5973 97.9615 9.88635C99.4642 9.18611 101.111 8.85057 102.768 8.90703C104.425 8.9635 106.045 9.41037 107.496 10.2113C108.741 10.918 109.683 12.0558 110.147 13.4099C110.608 15.4269 110.803 17.4957 110.725 19.5634V44.1469H98.7027V21.5841C98.7933 19.7525 98.6774 17.9166 98.3575 16.1109C98.2474 15.781 98.0264 15.4994 97.732 15.3143C97.4375 15.1291 97.088 15.0518 96.743 15.0955C96.3914 15.051 96.0352 15.1273 95.7326 15.3118C95.43 15.4962 95.1991 15.778 95.0777 16.1109C94.7286 17.9199 94.6024 19.7648 94.7019 21.6044V44.1469H82.6894V22.1527C82.7726 20.1172 82.6741 18.0782 82.395 16.0602C82.2938 15.7245 82.0745 15.4368 81.7778 15.2502C81.481 15.0636 81.1268 14.9906 80.7804 15.0447C80.523 15.0379 80.2667 15.082 80.0262 15.1743C79.7858 15.2667 79.5659 15.4055 79.3791 15.5829C79.0028 15.9191 78.7731 16.3893 78.7394 16.8928C78.7394 17.4005 78.6785 18.487 78.6785 20.1726V44.1469H66.666V9.62234L78.6887 9.57157Z" fill="white"/>
<path d="M142.965 22.8737C143.091 20.1958 142.627 17.523 141.605 15.0447C140.564 13.0727 138.895 11.504 136.863 10.587C134.169 9.37584 131.234 8.79916 128.282 8.9014C125.705 8.85266 123.145 9.32945 120.758 10.3027C118.761 11.064 117.094 12.5012 116.046 14.3644C114.98 16.5943 114.484 19.0543 114.604 21.5232V31.6064C114.531 33.5941 114.75 35.5819 115.254 37.506C115.71 38.9105 116.501 40.1827 117.559 41.2123C118.875 42.461 120.474 43.3707 122.22 43.8626C124.462 44.5352 126.795 44.8571 129.135 44.8171C131.411 44.8787 133.681 44.5524 135.847 43.8524C137.541 43.2577 139.062 42.2531 140.274 40.928C141.281 39.8897 142.038 38.6362 142.488 37.2623C142.854 35.6474 143.014 33.9926 142.965 32.3375V30.3066H131.268V34.3683C131.353 35.5432 131.19 36.7229 130.79 37.8309C130.59 38.1437 130.306 38.3935 129.97 38.5516C129.634 38.7097 129.26 38.7697 128.891 38.7245C128.598 38.7621 128.299 38.7197 128.028 38.6017C127.756 38.4838 127.521 38.2946 127.348 38.0543C126.987 37.082 126.848 36.0411 126.942 35.0081V27.433H142.965V22.8737ZM126.952 22.1223V19.3095C126.866 18.1056 126.973 16.8957 127.267 15.7251C127.47 15.2783 128.008 15.065 128.891 15.065C129.176 15.0308 129.465 15.0868 129.716 15.2253C129.968 15.3638 130.169 15.5776 130.293 15.8368C130.599 16.9672 130.716 18.1408 130.638 19.3095V22.1426L126.952 22.1223Z" fill="white"/>
<path d="M192.234 3.96637V8.65765H196.194V13.024H192.234V34.348C192.234 36.6327 192.376 37.902 192.65 38.166C192.924 38.43 194.102 38.5519 196.153 38.5519V44.1367H191.168C189.386 44.1886 187.603 44.0935 185.837 43.8524C184.672 43.6762 183.573 43.2004 182.648 42.4714C181.815 41.8586 181.214 40.9817 180.942 39.9836C180.64 37.8075 180.528 35.6093 180.607 33.4138V13.024H178.19V8.65765H180.607V3.96637H192.234Z" fill="white"/>
<path d="M225.966 16.2023C225.5 14.8836 224.744 13.6864 223.753 12.6991C222.453 11.436 220.873 10.4968 219.143 9.95747C216.847 9.22496 214.444 8.88174 212.035 8.94204C209.236 8.84266 206.453 9.40267 203.911 10.5769C201.98 11.4714 200.421 13.0121 199.504 14.9331C198.578 17.3396 198.159 19.9118 198.276 22.4878V31.3627C198.198 33.5937 198.427 35.8248 198.956 37.9934C199.373 39.4131 200.145 40.7027 201.2 41.7404C202.458 42.8779 203.985 43.6749 205.637 44.0555C207.91 44.6076 210.245 44.8636 212.583 44.8171C214.786 44.8556 216.982 44.5507 219.092 43.9134C220.847 43.3942 222.44 42.4367 223.722 41.1311C224.852 40.0067 225.667 38.6064 226.088 37.0694C226.526 34.8123 226.71 32.5133 226.637 30.2153V21.6958C226.709 19.8451 226.507 17.9939 226.037 16.2023H225.966ZM214.279 35.0385C214.358 36.0273 214.237 37.0219 213.923 37.963C213.766 38.2053 213.543 38.3979 213.281 38.5183C213.018 38.6388 212.727 38.6821 212.441 38.6433C212.149 38.677 211.853 38.6237 211.591 38.49C211.329 38.3563 211.113 38.1483 210.968 37.8919C210.646 36.8653 210.518 35.7872 210.593 34.7136V19.0862C210.506 17.9555 210.634 16.8187 210.968 15.7353C211.128 15.4894 211.353 15.294 211.62 15.1717C211.886 15.0495 212.181 15.0054 212.471 15.0448C212.756 15.0019 213.047 15.0447 213.307 15.1676C213.568 15.2906 213.786 15.4882 213.934 15.7353C214.247 16.8228 214.364 17.9576 214.279 19.0862V35.0385Z" fill="white"/>
<path d="M174.098 24.143C172.609 22.1934 169.004 19.709 163.284 16.6898C161.253 15.6743 160.075 14.7605 159.639 14.0192C159.11 13.0179 158.871 11.8892 158.948 10.7597C158.888 9.88023 159.093 9.00303 159.537 8.2414C159.737 7.9668 160.002 7.74669 160.309 7.60123C160.616 7.45576 160.955 7.38959 161.294 7.40875C161.579 7.37991 161.867 7.42128 162.132 7.52925C162.398 7.63721 162.633 7.8085 162.817 8.02816C163.218 8.92967 163.375 9.92047 163.274 10.9018V14.141H175.205V12.4047C175.205 8.94543 174.826 6.4881 174.068 5.03265C173.306 3.59074 171.742 2.39254 169.397 1.43803C166.67 0.42553 163.775 -0.0569772 160.867 0.0164333C158.206 -0.0480448 155.556 0.393002 153.059 1.31618C151.152 1.99469 149.512 3.26483 148.377 4.94126C147.416 6.49825 146.936 8.94543 146.936 12.2828C146.865 14.2355 147.211 16.1809 147.951 17.9895C148.533 19.3381 149.415 20.5361 150.53 21.4927C152.555 22.9837 154.675 24.3405 156.877 25.5545C158.994 26.6967 161.006 28.0254 162.888 29.5248C163.68 30.3304 164.076 32.0227 164.076 34.6019C164.135 35.5219 163.916 36.4383 163.446 37.2319C163.232 37.5305 162.946 37.7693 162.613 37.9257C162.281 38.0821 161.914 38.1509 161.548 38.1255C161.218 38.1646 160.883 38.1221 160.573 38.0017C160.263 37.8813 159.988 37.6867 159.771 37.435C159.33 36.4372 159.155 35.3422 159.263 34.2567V31.2104H147.332V32.7538C147.201 35.0374 147.586 37.3211 148.459 39.4354C149.446 41.4479 151.153 43.0168 153.241 43.8322C156.02 45.048 159.034 45.634 162.065 45.5482C164.885 45.6041 167.687 45.1002 170.311 44.0657C172.271 43.3937 173.953 42.0901 175.093 40.3594C175.916 38.887 176.332 36.5922 176.332 33.4951C176.332 29.2202 175.581 26.1231 174.098 24.2039" fill="white"/>
<path d="M230.82 9.15524V52.8187H242.132V41.0498C243.142 42.1866 244.376 43.1026 245.757 43.7407C247.096 44.3472 248.552 44.6555 250.022 44.6445C251.721 44.6886 253.401 44.2859 254.896 43.4767C256.164 42.8001 257.129 41.6681 257.597 40.3086C258.132 38.117 258.354 35.8607 258.257 33.6068V19.0861C258.337 17.1324 258.163 15.1766 257.739 13.2677C257.26 11.9676 256.325 10.8853 255.109 10.2214C253.606 9.31965 251.876 8.86525 250.123 8.91154C248.623 8.89784 247.138 9.20601 245.767 9.81527C244.375 10.4717 243.134 11.4085 242.122 12.5671V9.15524H230.82ZM245.757 34.3785C245.822 35.5504 245.727 36.7256 245.473 37.8716C245.28 38.3386 244.792 38.5824 244.011 38.5824C243.7 38.626 243.384 38.5734 243.104 38.4318C242.825 38.2902 242.595 38.0663 242.447 37.7903C242.125 36.5172 242.005 35.2014 242.091 33.8911V19.5837C242.007 18.3109 242.124 17.0328 242.437 15.7961C242.584 15.5218 242.812 15.2996 243.09 15.1597C243.368 15.0197 243.682 14.969 243.99 15.0143C244.803 15.0143 245.3 15.2377 245.483 15.6946C245.742 16.9737 245.834 18.2809 245.757 19.5837V34.3785Z" fill="white"/>
<path d="M29.9786 16.9842H17.0826V13.0342C17.1723 11.4611 17.0494 9.88311 16.7171 8.34291C16.5656 8.01969 16.3137 7.75409 15.999 7.58573C15.6842 7.41737 15.3235 7.35528 14.9705 7.40872C14.6491 7.37327 14.3243 7.43217 14.0358 7.57822C13.7473 7.72428 13.5076 7.95118 13.3458 8.23121C12.958 9.57229 12.8136 10.972 12.9194 12.364V33.3021C12.8327 34.6068 12.9771 35.9165 13.3458 37.1709C13.5024 37.4854 13.7522 37.7439 14.0611 37.9112C14.3701 38.0784 14.7232 38.1461 15.0721 38.1051C15.4555 38.1473 15.8427 38.073 16.1832 37.8918C16.5237 37.7107 16.8018 37.4312 16.9811 37.0897C17.4042 35.7798 17.5765 34.4018 17.4888 33.028V27.7884H14.9198V22.2137H29.9786V44.5531H21.6114L20.596 41.5068C19.7902 42.8081 18.6413 43.8621 17.2756 44.5531C15.8014 45.2525 14.1851 45.6001 12.5538 45.5685C10.4448 45.5835 8.36055 45.1145 6.46124 44.1977C4.7717 43.3859 3.31505 42.1598 2.22691 40.6335C1.29639 39.3673 0.667727 37.905 0.388983 36.3586C0.100308 34.1233 -0.0218802 31.8696 0.0234286 29.6161V16.6593C-0.0828631 13.6105 0.172779 10.5598 0.785 7.57119C1.30287 5.67234 2.81586 3.94611 5.1818 2.37219C8.01695 0.69012 11.2811 -0.12857 14.5745 0.0163995C17.83 -0.111429 21.0648 0.587241 23.9774 2.04726C26.1173 3.04885 27.8409 4.76531 28.8514 6.901C29.7183 9.53868 30.1002 12.3116 29.9786 15.0854V16.9842Z" fill="white"/>
<path d="M260.308 10.4245H260.592C260.836 10.4245 261.06 10.4245 261.06 10.1301C261.06 9.83558 260.856 9.85589 260.664 9.85589H260.308V10.4245ZM260.034 9.6325H260.714C261.131 9.6325 261.334 9.80512 261.334 10.1402C261.338 10.2036 261.329 10.2672 261.307 10.3269C261.286 10.3866 261.252 10.4411 261.208 10.487C261.164 10.5328 261.111 10.569 261.052 10.5932C260.993 10.6175 260.93 10.6292 260.867 10.6276L261.374 11.4196H261.07L260.592 10.6479H260.308V11.4196H260.034V9.6325ZM260.623 11.836C260.792 11.8334 260.958 11.797 261.113 11.7287C261.267 11.6604 261.407 11.5618 261.522 11.4386C261.638 11.3155 261.727 11.1703 261.786 11.0118C261.844 10.8533 261.87 10.6846 261.862 10.5159C261.848 10.272 261.763 10.0375 261.617 9.84144C261.471 9.64541 261.271 9.49647 261.041 9.41306C260.811 9.32966 260.562 9.31545 260.325 9.3722C260.087 9.42895 259.871 9.55416 259.704 9.73233C259.537 9.9105 259.426 10.1338 259.384 10.3746C259.342 10.6154 259.372 10.863 259.47 11.087C259.568 11.3109 259.729 11.5012 259.934 11.6343C260.139 11.7675 260.379 11.8376 260.623 11.836V11.836ZM260.623 9.00293C260.997 9.04615 261.341 9.22521 261.592 9.50605C261.842 9.7869 261.98 10.1499 261.98 10.5261C261.98 10.9022 261.842 11.2652 261.592 11.5461C261.341 11.8269 260.997 12.006 260.623 12.0492C260.249 12.006 259.905 11.8269 259.654 11.5461C259.404 11.2652 259.266 10.9022 259.266 10.5261C259.266 10.1499 259.404 9.7869 259.654 9.50605C259.905 9.22521 260.249 9.04615 260.623 9.00293" fill="white" fill-opacity="0.6"/>
</svg>
