<svg width="167" height="64" viewBox="0 0 167 64" fill="none" xmlns="http://www.w3.org/2000/svg">
<path d="M20.8804 19.5562V32.0842H16.8585V19.4338C16.8585 14.7817 14.2329 14.2268 11.9585 14.2268C10.1178 14.2459 8.29597 14.5916 6.58196 15.2469V32.0842H2.56V2.7027H6.58196V11.5335C8.42171 10.8357 10.3778 10.476 12.3515 10.4725C17.7699 10.4725 20.8804 13.7371 20.8804 19.5562Z" fill="white"/>
<path d="M40.7728 27.5382V31.0803C38.3153 32.0534 35.6814 32.5309 33.0299 32.484C28.4393 32.484 22.9959 30.6069 22.9959 21.7353C22.9959 18.9604 22.9959 10.4724 32.6536 10.4724C38.5068 10.4724 42.2695 14.5532 42.2695 20.7559C42.2695 21.7789 42.2277 22.7582 42.1441 23.6941H27.0931C27.7035 28.134 30.3708 29.1133 33.2556 29.1133C35.8579 29.192 38.4407 28.6514 40.7811 27.5382H40.7728ZM27.0513 20.1928H38.2392C38.0134 17.7444 36.9682 14.0064 32.6369 14.0064C28.9661 14.0064 27.3941 15.6387 27.0429 20.1928" fill="white"/>
<path d="M62.647 19.3848V25.5549C62.647 27.1872 61.9948 32.4677 53.5997 32.4677C45.029 32.4677 44.4018 27.0893 44.4018 25.4325C44.4018 21.2048 48.2482 18.6829 54.67 18.6829C56.0013 18.6799 57.3312 18.7671 58.6501 18.9441C58.4745 15.4428 56.9025 13.9084 52.6213 13.9084C50.5555 13.9214 48.5065 14.2717 46.5591 14.9449V11.6232C48.6706 10.8492 50.9094 10.4592 53.1649 10.4724C59.2354 10.4724 62.647 13.6228 62.647 19.3848V19.3848ZM58.625 22.0291C57.3654 21.8499 56.0934 21.7653 54.8205 21.7761C52.9391 21.7761 48.3569 22.3311 48.3569 25.359C48.3569 27.8075 50.1463 28.9909 53.5997 28.9909C56.9443 28.9909 58.6167 27.8401 58.6167 25.4896L58.625 22.0291Z" fill="white"/>
<path d="M69.2108 2.7027H65.1889V32.1005H69.2108V2.7027Z" fill="white"/>
<path d="M79.2114 14.1288V26.469C79.2114 28.3054 80.4322 28.991 82.4892 28.991C83.5701 29.0024 84.6405 28.7823 85.6248 28.3462V31.8475C84.4309 32.2393 83.1801 32.4405 81.9206 32.4433C80.5158 32.4433 75.2313 31.9781 75.2313 26.216V14.1288H71.4267V10.8642H75.2313V2.76801H79.2114V10.8071H85.6248V14.0717L79.2114 14.1288Z" fill="white"/>
<path d="M92.0299 15.2469C93.7439 14.5916 95.5657 14.2459 97.4065 14.2268C99.6808 14.2268 102.306 14.7817 102.306 19.4338V32.0842H106.328V19.5562C106.328 13.7534 103.226 10.4725 97.7995 10.4725C95.8257 10.476 93.8697 10.8357 92.0299 11.5335V2.7027H88.0079V28.2482H92.0299V15.2469Z" fill="white"/>
<path d="M92.0465 28.2482H88.0245V32.1005H92.0465V28.2482Z" fill="white"/>
<path d="M50.6311 43.951V57.6542H46.651V43.698C46.651 41.6903 46.0824 39.6173 42.1524 39.6173C40.14 39.6417 38.1517 40.0493 36.2992 40.817C36.6659 41.8229 36.8498 42.8835 36.8427 43.951V57.6542H32.7957V43.7797C32.7957 41.7801 32.2271 39.6989 27.7787 39.6989C26.1685 39.7092 24.5664 39.9232 23.0125 40.3355V57.6542H18.9822V38.1074C21.8105 36.7426 24.9165 36.0147 28.0713 35.9772C30.1508 35.8982 32.2017 36.4702 33.9245 37.6095C36.4621 36.5764 39.1775 36.0225 41.9266 35.9772C47.437 35.9772 50.6729 38.9644 50.6729 43.951" fill="white"/>
<path d="M71.5771 44.9385V51.0842C71.5771 52.7165 70.9166 57.997 62.5214 57.997C53.9507 57.997 53.3236 52.6185 53.3236 50.9536C53.3236 46.7259 57.17 44.2122 63.6001 44.2122C64.9312 44.2071 66.2611 44.2916 67.5803 44.4652C67.4047 40.9639 65.8243 39.4295 61.5431 39.4295C59.4839 39.4564 57.4436 39.8177 55.506 40.4987V37.1688C57.6175 36.3947 59.8563 36.0047 62.1117 36.018C68.1907 36.018 71.6022 39.1765 71.6022 44.9385H71.5771ZM67.5552 47.591C66.2961 47.4052 65.0239 47.3178 63.7506 47.3299C61.8692 47.3299 57.2787 47.8848 57.2787 50.9209C57.2787 53.3694 59.0681 54.5446 62.5214 54.5446C65.9748 54.5446 67.5384 53.3939 67.5384 51.0434L67.5552 47.591Z" fill="white"/>
<path d="M78.9188 57.695H74.9386V42.1881C74.9386 36.4261 80.9925 35.9527 82.3973 35.9527C83.6565 35.959 84.9068 36.1601 86.1015 36.5485V40.0498C85.1148 39.6233 84.0448 39.4117 82.9659 39.4295C80.9089 39.4295 78.9188 40.1069 78.9188 41.9433V57.695Z" fill="white"/>
<path d="M97.4232 45.2324L106.914 36.3608H101.487L92.0466 45.2732V32.1005H88.0247L88.0163 57.6542H92.0466V50.3088L94.7558 47.7543L102.842 57.6542H108.176L97.4232 45.2324Z" fill="white"/>
<path d="M125.61 53.0837V56.6258C123.156 57.6013 120.525 58.0816 117.876 58.0378C113.285 58.0378 107.842 56.1606 107.842 47.2809C107.842 44.506 107.842 36.018 117.508 36.018C123.361 36.018 127.124 40.0988 127.124 46.3015C127.124 47.3217 127.082 48.3093 126.99 49.2478H111.939C112.549 53.6795 115.217 54.6671 118.102 54.6671C120.705 54.7448 123.288 54.2013 125.627 53.0837H125.61ZM111.897 45.7384H123.093C122.876 43.2899 121.822 39.5519 117.5 39.5519C113.82 39.5519 112.248 41.1842 111.897 45.7384Z" fill="white"/>
<path d="M135.318 39.6417V52.0228C135.318 53.8509 136.547 54.5365 138.596 54.5365C139.678 54.545 140.75 54.328 141.74 53.8999V57.3849C140.544 57.7803 139.29 57.9843 138.027 57.9888C136.631 57.9888 131.338 57.5155 131.338 51.7534V39.6417H127.542V36.3771H131.33V30.003H135.31V36.3608H141.732V39.6254L135.318 39.6417Z" fill="white"/>
<path d="M157.368 37.4218V40.8007C155.691 40.0009 153.857 39.5638 151.992 39.5193C148.455 39.5193 147.669 40.8007 147.669 42.2452C147.669 45.6568 158.815 43.698 158.815 51.7208C158.815 54.6671 156.674 57.997 150.679 57.997C148.488 58.0215 146.325 57.5079 144.391 56.5034V52.9613C146.251 54.0022 148.359 54.5455 150.503 54.5365C153.48 54.5365 154.793 53.2959 154.793 51.8922C154.793 47.1095 143.688 49.713 143.688 42.3758C143.688 39.2989 145.745 36.018 151.515 36.018C153.551 36.0395 155.554 36.5199 157.368 37.4218" fill="white"/>
<path d="M161.164 53.9244C161.542 53.9357 161.908 54.056 162.216 54.2699C162.524 54.4839 162.76 54.782 162.894 55.1266C163.029 55.4713 163.056 55.8472 162.972 56.2069C162.888 56.5667 162.697 56.8941 162.423 57.1481C162.149 57.402 161.804 57.5711 161.432 57.6341C161.059 57.697 160.676 57.651 160.331 57.5018C159.985 57.3525 159.692 57.1068 159.489 56.7956C159.287 56.4843 159.183 56.1214 159.191 55.7526C159.193 55.504 159.246 55.2583 159.346 55.0297C159.446 54.8011 159.592 54.5943 159.775 54.4212C159.957 54.2481 160.174 54.1121 160.411 54.0212C160.648 53.9303 160.901 53.8863 161.156 53.8917L161.164 53.9244ZM161.164 54.2998C160.76 54.2998 160.373 54.4563 160.088 54.7349C159.803 55.0134 159.642 55.3913 159.642 55.7852C159.642 56.1792 159.803 56.557 160.088 56.8355C160.373 57.1141 160.76 57.2706 161.164 57.2706C161.568 57.2706 161.955 57.1141 162.24 56.8355C162.526 56.557 162.686 56.1792 162.686 55.7852C162.686 55.3913 162.526 55.0134 162.24 54.7349C161.955 54.4563 161.568 54.2998 161.164 54.2998V54.2998ZM160.871 56.7483H160.437V54.9364C160.675 54.8847 160.92 54.86 161.164 54.863C161.395 54.8408 161.627 54.8924 161.825 55.0099C161.884 55.0588 161.931 55.1201 161.963 55.1894C161.995 55.2586 162.011 55.3339 162.009 55.4098C162.003 55.5156 161.961 55.6165 161.89 55.6964C161.819 55.7763 161.722 55.8306 161.616 55.8505V55.8505C161.808 55.9076 161.908 56.0545 161.967 56.2994C161.981 56.4597 162.03 56.6154 162.109 56.7564H161.632C161.56 56.6176 161.509 56.4691 161.482 56.3157C161.44 56.1117 161.331 56.0219 161.089 56.0219H160.871V56.7483ZM160.871 55.7036H161.08C161.323 55.7036 161.524 55.622 161.524 55.4343C161.524 55.2466 161.39 55.1486 161.114 55.1486C161.033 55.1404 160.952 55.1404 160.871 55.1486V55.7036Z" fill="white"/>
</svg>
