<svg width="230" height="58" viewBox="0 0 230 58" fill="none" xmlns="http://www.w3.org/2000/svg">
<path d="M48.8574 21.7101C45.7179 21.7101 42.4725 21.4985 39.1565 21.0399C26.3513 19.2761 15.2393 14.3021 7.61969 7.67025C14.3927 4.46012 22.8237 2.62576 31.9249 2.62576C35.0645 2.62576 38.3099 2.83742 41.5906 3.29601C54.3958 5.05981 65.5077 10.0337 73.1274 16.6656C66.3896 19.8758 57.9939 21.7101 48.8574 21.7101Z" fill="white" fill-opacity="0.4"/>
<path d="M28.3621 37.3374C36.0875 39.7715 45.224 39.2423 53.9725 35.2209C62.7209 31.1994 69.4234 24.4264 73.1627 16.7009C65.4372 14.2669 56.3007 14.796 47.5522 18.8175C38.7685 22.8742 32.1013 29.6472 28.3621 37.3374Z" fill="white" fill-opacity="0.4"/>
<path d="M58.8053 29.6473C55.4894 35.9264 54.7486 42.7699 56.2302 48.8022C62.0507 46.615 67.3069 42.135 70.6228 35.8558C73.9388 29.5767 74.6796 22.7331 73.198 16.7009C67.3421 18.888 62.1213 23.3681 58.8053 29.6473Z" fill="white" fill-opacity="0.4"/>
<path d="M73.092 16.7009C65.4019 14.3021 56.2654 14.8313 47.5522 18.8528C45.8942 19.6288 44.3068 20.4755 42.7899 21.4279C54.1841 22.4156 64.8374 20.5813 73.092 16.7009Z" fill="white"/>
<path d="M57.0767 33.6334C64.3083 29.5414 69.8819 23.4739 73.1626 16.7362C67.3421 18.9233 62.1212 23.4034 58.8052 29.6472C58.0997 30.9524 57.5353 32.2929 57.0767 33.6334Z" fill="white"/>
<path d="M85.0154 12.8206C85.0154 13.8083 84.204 14.6196 83.2163 14.6196C82.2285 14.6196 81.4172 13.8083 81.4172 12.8206C81.4172 11.8328 82.2285 11.0215 83.2163 11.0215C84.204 10.9862 85.0154 11.7976 85.0154 12.8206Z" fill="white"/>
<path d="M87.2025 31.6227H79.2301C78.9479 31.6227 78.7363 31.5521 78.7363 31.411C78.7363 31.2347 78.9479 31.0936 79.2301 31.0583L80.4648 30.8819C80.9939 30.7761 81.4525 30.2822 81.4525 29.5414V17.089H84.9801V29.5414C84.9801 30.2822 85.4387 30.8114 85.9678 30.8819L87.2025 31.0583C87.4847 31.0936 87.6964 31.2347 87.6964 31.3758C87.6964 31.5874 87.4847 31.6227 87.2025 31.6227Z" fill="white"/>
<path d="M156.52 12.8206C156.52 13.8083 155.709 14.6196 154.721 14.6196C153.698 14.6196 152.922 13.8083 152.922 12.8206C152.922 11.8328 153.733 11.0215 154.721 11.0215C155.709 10.9862 156.52 11.7976 156.52 12.8206Z" fill="white"/>
<path d="M158.707 31.6227H150.735C150.453 31.6227 150.241 31.5521 150.241 31.411C150.241 31.2347 150.453 31.0936 150.735 31.0583L151.969 30.8819C152.499 30.7761 152.957 30.2822 152.957 29.5414V17.089H156.485V29.5414C156.485 30.2822 156.943 30.8114 157.473 30.8819L158.707 31.0583C158.989 31.0936 159.201 31.2347 159.201 31.3758C159.201 31.5874 158.989 31.6227 158.707 31.6227Z" fill="white"/>
<path d="M110.344 31.6227H103.923C103.641 31.6227 103.43 31.5521 103.43 31.411C103.43 31.2347 103.641 31.1288 103.923 31.0583C104.453 30.9525 104.841 30.4586 104.841 29.7178L104.876 22.6626V19.4525C104.876 16.7715 103.571 15.1841 100.643 15.1841C98.9848 15.1841 95.9863 16.5245 95.9863 18.8528V22.6273L96.0216 29.5061C96.0216 30.2469 96.4802 30.7761 97.0093 30.8466L98.244 31.023C98.5262 31.0583 98.7378 31.1994 98.7378 31.3405C98.7378 31.5169 98.5262 31.5874 98.244 31.5874H90.3069C90.0246 31.5874 89.813 31.5169 89.813 31.3758C89.813 31.1994 90.0246 31.0583 90.3069 31.023L91.5415 30.8466C92.0707 30.7408 92.5292 30.2469 92.5292 29.5061V13.6319H94.8575C95.1397 13.6319 95.2455 13.7377 95.3513 13.9494L96.1274 15.6426C96.198 15.7485 96.3038 15.7837 96.4096 15.6779C97.6443 14.1258 99.3728 13.3144 101.525 13.3144C105.44 13.3144 108.368 15.7132 108.368 18.8175V22.592L108.403 29.4709C108.403 30.1764 108.897 30.7408 109.426 30.8113L110.344 30.9877C110.591 31.0583 110.838 31.1641 110.838 31.3405C110.838 31.5874 110.626 31.6227 110.344 31.6227Z" fill="white"/>
<path d="M120.327 31.9401C118.069 31.9401 116.693 31.5168 115.035 31.411C114.824 31.411 114.612 31.1288 114.612 31.023L114.118 26.4018C114.118 26.2607 114.189 26.0843 114.33 26.0843C114.436 26.0843 114.541 26.1902 114.612 26.3313C115.811 29.7883 117.575 30.7408 120.609 30.7408C122.69 30.7408 124.454 29.8236 124.454 27.7776C124.454 22.5567 113.307 24.2853 113.307 18.2178C113.307 15.1841 116.482 13.4555 119.48 13.4555C122.161 13.4555 123.607 13.8788 125.265 13.9847C125.477 13.9847 125.653 14.1258 125.653 14.3727L125.689 19.0291C125.689 19.2408 125.583 19.3466 125.442 19.3466C125.336 19.3466 125.23 19.2408 125.195 19.0997C124.489 15.8543 122.796 14.7607 119.551 14.7607C117.857 14.7607 116.517 15.5721 116.517 17.1242C116.517 21.957 127.629 20.1932 127.629 26.8957C127.629 30.5291 123.713 31.9401 120.327 31.9401Z" fill="white"/>
<path d="M138.67 31.6227H135.848C135.742 31.6227 135.601 31.7285 135.601 31.8696V34.6564C135.601 35.3972 136.025 35.891 136.589 35.9616L137.612 36.138C137.859 36.1733 138.106 36.2791 138.106 36.4555C138.106 36.6318 137.894 36.7024 137.612 36.7024H131.157C130.874 36.7024 130.663 36.6318 130.663 36.4907C130.663 36.3144 130.874 36.2085 131.157 36.138C131.686 36.0322 132.074 35.5383 132.074 34.7975V13.6672C132.074 13.6672 137.824 13.3849 139.2 13.3849C143.362 13.3849 147.701 16.3129 147.701 22.0981C147.736 27.072 144.068 31.6227 138.67 31.6227ZM139.094 14.5843C137.753 14.5843 136.765 14.9018 135.919 15.4662C135.778 15.5721 135.637 15.8543 135.637 16.0307V22.6625V28.9417C135.637 30.0352 136.695 30.4585 138.423 30.4585C143.045 30.4585 143.997 25.5905 143.997 21.9217C143.997 16.4892 141.669 14.5843 139.094 14.5843Z" fill="white"/>
<path d="M176.416 17.7945C176.381 18.0414 176.275 18.2883 176.098 18.2883C175.992 18.2883 175.816 18.1472 175.816 17.9708C175.71 15.9248 175.075 15.2546 173.1 15.2546C171.442 15.2546 168.443 16.5951 168.443 18.9233V22.6978L168.479 29.5767C168.479 30.3175 168.937 30.8466 169.466 30.9172L170.701 31.0935C170.983 31.1288 171.195 31.2699 171.195 31.411C171.195 31.5874 170.983 31.658 170.701 31.658H162.729C162.447 31.658 162.235 31.5874 162.235 31.4463C162.235 31.2699 162.447 31.1288 162.729 31.0935L163.963 30.9172C164.493 30.8113 164.951 30.3175 164.951 29.5767V13.7024H167.279C167.562 13.7024 167.667 13.8083 167.773 14.0199L168.549 15.7132C168.62 15.819 168.726 15.8543 168.831 15.7485C170.066 14.1963 171.795 13.3849 173.946 13.3849C174.476 13.3849 175.428 13.4908 176.063 13.6672C176.557 13.773 176.874 13.9846 176.839 14.2316L176.416 17.7945Z" fill="white"/>
<path d="M198.216 31.6227H193.56C193.278 31.6227 193.172 31.5168 193.066 31.3052L192.29 29.6119C192.255 29.5061 192.114 29.4708 192.008 29.5766C190.773 31.1288 189.045 31.9401 186.928 31.9401C182.977 31.9401 180.049 29.5414 180.049 26.4371V13.7025H183.506V25.8727C183.506 28.5536 184.811 30.1411 187.739 30.1411C189.397 30.1411 192.361 28.8006 192.361 26.4724V13.7377H195.853V29.6472C195.853 30.388 196.276 30.8819 196.841 30.9524L198.146 31.1288C198.393 31.1641 198.64 31.2699 198.64 31.4463C198.675 31.5874 198.463 31.6227 198.216 31.6227Z" fill="white"/>
<path d="M207.811 31.9401C205.554 31.9401 204.178 31.5168 202.52 31.411C202.308 31.411 202.097 31.1288 202.097 31.023L201.603 26.4018C201.603 26.2607 201.673 26.0843 201.815 26.0843C201.92 26.0843 202.026 26.1902 202.097 26.3313C203.296 29.7883 205.06 30.7408 208.094 30.7408C210.14 30.7408 211.939 29.8236 211.939 27.7776C211.939 22.5567 200.792 24.2853 200.792 18.2178C200.792 15.1841 203.966 13.4555 206.965 13.4555C209.646 13.4555 211.092 13.8788 212.75 13.9847C212.962 13.9847 213.138 14.1258 213.138 14.3727L213.173 19.0291C213.173 19.2408 213.068 19.3466 212.927 19.3466C212.821 19.3466 212.715 19.2408 212.68 19.0997C212.009 15.8543 210.281 14.7607 207.035 14.7607C205.342 14.7607 204.002 15.5721 204.002 17.1242C204.002 21.957 215.114 20.1932 215.114 26.8957C215.078 30.5291 211.198 31.9401 207.811 31.9401Z" fill="white"/>
<path d="M215.29 12.2209C215.396 11.9739 215.537 11.7623 215.748 11.5506C215.925 11.3742 216.172 11.1979 216.419 11.092C216.666 10.9862 216.948 10.9156 217.23 10.9156C217.512 10.9156 217.795 10.9862 218.041 11.092C218.288 11.1979 218.5 11.339 218.712 11.5506C218.888 11.727 219.064 11.9739 219.17 12.2209C219.276 12.4678 219.347 12.75 219.347 13.0322C219.347 13.3144 219.311 13.5966 219.17 13.8436C219.064 14.0905 218.923 14.3022 218.712 14.5138C218.535 14.6902 218.288 14.8313 218.041 14.9371C217.795 15.0429 217.512 15.0782 217.23 15.0782C216.948 15.0782 216.666 15.0429 216.419 14.9371C216.172 14.8313 215.96 14.6902 215.748 14.5138C215.537 14.3374 215.396 14.1258 215.29 13.8436C215.184 13.5966 215.114 13.3144 215.114 13.0322C215.114 12.7147 215.149 12.4678 215.29 12.2209ZM218.888 12.2914C218.782 12.0798 218.641 11.8681 218.5 11.6917C218.324 11.5153 218.147 11.3742 217.9 11.3037C217.689 11.1979 217.442 11.1626 217.195 11.1626C216.948 11.1626 216.701 11.1979 216.489 11.3037C216.278 11.4095 216.066 11.5153 215.89 11.6917C215.713 11.8681 215.572 12.0445 215.502 12.2914C215.396 12.5031 215.36 12.75 215.36 12.9969C215.36 13.2439 215.396 13.4908 215.502 13.7025C215.607 13.9141 215.713 14.1258 215.89 14.3022C216.066 14.4785 216.242 14.5844 216.489 14.6902C216.701 14.796 216.948 14.8313 217.195 14.8313C217.442 14.8313 217.689 14.796 217.9 14.6902C218.112 14.5844 218.324 14.4785 218.5 14.3022C218.676 14.1258 218.782 13.9494 218.888 13.7025C218.994 13.4908 219.029 13.2439 219.029 12.9969C219.029 12.75 218.994 12.5383 218.888 12.2914ZM218.077 14.1611C218.041 14.1611 217.971 14.1611 217.936 14.1611C217.9 14.1611 217.83 14.1611 217.795 14.1611C217.759 14.1611 217.689 14.1611 217.653 14.1611C217.512 13.8788 217.371 13.6672 217.301 13.5261C217.23 13.385 217.16 13.2791 217.124 13.2086C217.089 13.138 217.054 13.1028 217.054 13.1028H217.018H216.983C216.983 13.1028 216.983 13.138 216.983 13.1733C216.983 13.2439 216.983 13.3497 216.983 13.4555C216.983 13.5614 216.983 13.6672 216.983 13.7377C216.983 13.8436 216.983 13.9141 216.983 13.9847C216.983 14.0552 216.983 14.1258 216.983 14.1611C216.948 14.1611 216.877 14.1611 216.842 14.1611C216.807 14.1611 216.736 14.1611 216.701 14.1611C216.666 14.1611 216.63 14.1611 216.56 14.1611C216.525 14.1611 216.454 14.1611 216.419 14.1611C216.419 14.1258 216.419 14.0905 216.419 14.0552C216.419 13.9847 216.419 13.9141 216.419 13.8083C216.419 13.7025 216.419 13.5614 216.419 13.4203C216.419 13.2791 216.419 13.0675 216.419 12.8558C216.419 12.6795 216.419 12.5384 216.419 12.3972C216.419 12.2561 216.419 12.1856 216.419 12.0798C216.419 12.0092 216.419 11.9387 216.419 11.8681C216.419 11.8328 216.419 11.7623 216.419 11.727C216.489 11.727 216.56 11.727 216.666 11.727C216.736 11.727 216.807 11.727 216.877 11.727C216.913 11.727 216.983 11.727 217.089 11.727C217.16 11.727 217.265 11.727 217.371 11.727C217.583 11.727 217.759 11.7976 217.865 11.9034C217.971 12.0092 218.041 12.1503 218.041 12.3267C218.041 12.5031 217.971 12.6442 217.865 12.75C217.759 12.8558 217.618 12.9264 217.477 12.9617L218.218 14.1611C218.183 14.1611 218.112 14.1611 218.077 14.1611ZM217.371 12.0798C217.301 12.0092 217.23 11.9739 217.124 11.9739H216.948C216.948 12.0798 216.948 12.1856 216.948 12.2561C216.948 12.3267 216.948 12.4325 216.948 12.5031V12.9264C216.983 12.9264 217.018 12.9264 217.089 12.9264C217.16 12.9264 217.23 12.8911 217.265 12.8558C217.336 12.8206 217.371 12.7853 217.406 12.7147C217.442 12.6442 217.477 12.5384 217.477 12.3972C217.477 12.2561 217.442 12.1503 217.371 12.0798Z" fill="white"/>
<path d="M120.256 53.2469H121.173C122.655 53.2469 123.255 52.7883 123.255 51.5537V51.342L123.078 51.4478C122.69 51.6595 122.196 51.9064 121.491 51.9064C120.574 51.9064 119.798 51.2715 119.798 49.931V49.5782C119.798 47.8144 121.032 46.7914 122.479 46.7914H124.101V51.4831C124.101 53.3175 123.043 54.023 121.173 54.023H120.256V53.2469ZM123.29 50.6365V47.5322H122.514C121.35 47.5322 120.679 48.3083 120.679 49.5429V49.8957C120.679 50.7423 121.067 51.0951 121.667 51.0951C122.232 51.0951 122.725 50.9187 123.149 50.7071L123.29 50.6365Z" fill="white"/>
<path d="M126.006 46.7914H126.853V47.9908L126.923 47.885C127.311 47.25 127.805 46.8267 128.511 46.8267H128.864V47.7439H128.476C128.088 47.7439 127.699 47.885 127.453 48.1319L126.853 48.7316V52.1886H126.006V46.7914Z" fill="white"/>
<path d="M129.534 49.4018C129.534 47.7791 130.31 46.6856 131.897 46.6856C133.555 46.6856 134.261 47.7791 134.261 49.4018C134.261 51.1656 133.485 52.2592 131.897 52.2592C130.239 52.2592 129.534 51.1656 129.534 49.4018ZM133.379 49.4018C133.379 48.2025 133.026 47.4617 131.862 47.4617C130.698 47.4617 130.38 48.2025 130.38 49.4018C130.38 50.6012 130.733 51.4831 131.862 51.4831C132.991 51.4831 133.379 50.6012 133.379 49.4018Z" fill="white"/>
<path d="M135.672 50.4248V46.7914H136.518V50.4248C136.518 51.2715 136.907 51.5184 137.365 51.5184C137.894 51.5184 138.459 50.9893 138.741 50.6718L139.058 50.3543V46.8267H139.905V52.2239H139.058V51.1656L138.67 51.5537C138.282 51.9417 137.824 52.2592 137.118 52.2592C136.272 52.2592 135.672 51.8006 135.672 50.4248Z" fill="white"/>
<path d="M141.739 46.7914H142.586V47.8144L142.974 47.4264C143.362 47.0383 143.821 46.7209 144.526 46.7209C145.373 46.7209 146.078 47.25 146.078 48.5905V49.4371C146.078 51.1304 144.703 52.2239 143.221 52.2239H142.621V54.0936H141.775V46.7914H141.739ZM142.586 48.6258V51.4126H143.186C144.35 51.4126 145.196 50.6365 145.196 49.4018V48.5552C145.196 47.7086 144.808 47.4617 144.35 47.4617C143.821 47.4617 143.186 47.9908 142.903 48.3083L142.586 48.6258Z" fill="white"/>
<path fill-rule="evenodd" clip-rule="evenodd" d="M111.649 41.7116C111.896 41.1825 112.143 40.6534 112.39 40.1595C112.46 40.6886 112.531 41.2178 112.601 41.7469C113.095 41.5705 113.624 41.3589 114.118 41.2178C113.765 41.6764 113.413 42.135 113.06 42.5583C113.448 42.8758 113.836 43.158 114.189 43.4402C113.66 43.5107 113.166 43.5107 112.672 43.5813C112.637 44.1104 112.601 44.6748 112.601 45.204C112.319 44.8159 112.037 44.3926 111.755 44.0046C111.331 44.3926 110.908 44.7807 110.485 45.1687C110.661 44.6043 110.802 44.0751 110.979 43.5107C110.485 43.4402 109.991 43.3696 109.497 43.2991C109.991 43.0169 110.45 42.7346 110.943 42.4877C110.732 42.0291 110.555 41.5353 110.344 41.0767C110.767 41.2883 111.226 41.5 111.649 41.7116Z" fill="white"/>
<path fill-rule="evenodd" clip-rule="evenodd" d="M106.922 48.8374C108.227 47.7439 109.391 46.4739 110.485 45.1687C109.991 46.8972 109.003 48.4847 107.698 49.6841C107.38 49.931 107.098 50.2132 106.745 50.4249C105.617 51.2009 104.276 51.6948 102.936 51.6948L102.971 51.6595C104.065 51.0246 105.088 50.319 106.04 49.543C106.357 49.3313 106.64 49.0844 106.922 48.8374Z" fill="white"/>
<path d="M106.922 48.8374C108.227 47.7439 109.391 46.4739 110.485 45.1687C109.991 46.8972 109.003 48.4846 107.698 49.684C107.38 49.931 107.098 50.2132 106.745 50.4248C105.617 51.2009 104.276 51.6948 102.936 51.6948L102.971 51.6595C104.065 51.0245 105.088 50.319 106.04 49.5429C106.357 49.3313 106.64 49.0843 106.922 48.8374C106.64 49.0843 106.357 49.3313 106.075 49.5782C105.123 50.3543 104.065 51.0598 103.006 51.6948L102.971 51.7301C104.347 51.7301 105.687 51.2362 106.781 50.4601C107.134 50.2485 107.416 49.9662 107.733 49.7193C109.038 48.4847 110.026 46.8972 110.52 45.204C109.391 46.4739 108.227 47.7086 106.922 48.8374Z" fill="white"/>
<path fill-rule="evenodd" clip-rule="evenodd" d="M81.3114 47.1089C81.8758 46.9678 82.4755 46.8972 83.0399 46.8972C83.6748 46.8972 84.3451 46.9325 84.9801 47.0383C84.8742 47.2853 84.8037 47.5322 84.7331 47.7791C83.816 47.7086 82.8635 47.638 81.9463 47.8497C81.6641 47.9202 81.3114 48.0261 81.2408 48.3788C81.2408 48.6258 81.4525 48.7669 81.6641 48.8374C82.3344 49.0138 83.0046 48.9785 83.6396 49.296C83.9218 49.4371 84.1687 49.684 84.2393 50.0015C84.3098 50.4954 84.1687 51.0598 83.816 51.4126C83.4279 51.8359 82.8282 52.0475 82.2638 52.1534C81.0997 52.3298 79.9003 52.2239 78.7715 51.9417C78.842 51.6948 78.9126 51.4126 78.9831 51.1656C79.9709 51.3068 80.9586 51.4479 81.9463 51.2362C82.2991 51.1656 82.7224 50.954 82.7929 50.5307C82.8635 50.2485 82.6166 50.0368 82.4049 49.9663C81.7699 49.7899 81.0997 49.8251 80.5 49.5782C80.2531 49.4724 79.9709 49.296 79.865 49.0138C79.6887 48.5552 79.865 47.9908 80.2178 47.638C80.5353 47.3911 80.9233 47.2147 81.3114 47.1089Z" fill="white"/>
<path fill-rule="evenodd" clip-rule="evenodd" d="M104.17 46.8972C104.558 46.8972 104.982 46.8972 105.37 46.8972C105.864 47.5675 106.393 48.2024 106.957 48.8021L106.922 48.8374C106.64 49.1196 106.357 49.3313 106.075 49.5782C105.37 48.7316 104.735 47.8144 104.17 46.8972Z" fill="white"/>
<path fill-rule="evenodd" clip-rule="evenodd" d="M97.1856 44.7807C97.0445 45.4509 96.9387 46.1212 96.7975 46.7914C95.7393 46.7562 94.6104 46.6856 93.6227 47.1442C92.7761 47.497 92.1058 48.2025 91.8942 49.0844C91.6825 49.7899 91.6825 50.6365 92.1764 51.2362C92.635 51.8006 93.3758 52.0476 94.1166 52.0828C94.9279 52.1181 95.7745 52.0123 96.4448 51.4831C97.0798 51.0246 97.3972 50.2838 97.5736 49.543C97.8911 47.9203 98.2086 46.2623 98.4908 44.6396C98.0322 44.7101 97.6089 44.7454 97.1856 44.7807ZM96.1626 49.6488C96.092 50.0721 95.9509 50.4954 95.5982 50.7776C95.2101 51.1304 94.6457 51.2362 94.1166 51.1657C93.7638 51.1304 93.3758 50.954 93.1994 50.6365C92.9877 50.2485 93.0583 49.7899 93.1641 49.3666C93.3052 48.8022 93.658 48.273 94.1871 47.9908C94.8926 47.6381 95.7393 47.6381 96.5153 47.7086C96.4448 48.3436 96.3037 48.9785 96.1626 49.6488Z" fill="white"/>
<path fill-rule="evenodd" clip-rule="evenodd" d="M103.535 47.2853C103.112 46.9325 102.512 46.8267 101.983 46.8267C100.96 46.7914 99.8667 47.1089 99.1259 47.8144C98.5262 48.3435 98.1734 49.1549 98.1381 49.931C98.1029 50.4248 98.2087 50.954 98.5614 51.342C98.9495 51.8359 99.5844 52.1181 100.184 52.2239C101.137 52.4003 102.16 52.2239 102.971 51.6595L103.006 51.6242C102.089 51.73 101.066 51.7653 100.219 51.3067C99.6903 51.0245 99.4433 50.3896 99.4786 49.7899C100.537 49.9662 101.666 50.0368 102.724 49.6488C103.147 49.4724 103.571 49.1902 103.782 48.7669C103.994 48.3083 103.959 47.6733 103.535 47.2853ZM102.019 48.9785C101.242 49.2254 100.431 49.1549 99.655 49.0491C99.8667 48.5552 100.255 48.0966 100.784 47.8497C101.207 47.638 101.736 47.5675 102.195 47.7086C102.407 47.7791 102.618 47.9555 102.618 48.2024C102.689 48.5552 102.371 48.8727 102.019 48.9785Z" fill="white"/>
<path fill-rule="evenodd" clip-rule="evenodd" d="M91.1887 48.5199C91.1181 47.9555 90.7654 47.4616 90.3068 47.2147C89.6718 46.8267 88.8957 46.7914 88.1549 46.8619C87.1672 46.9678 86.2148 47.4264 85.6151 48.1672C85.1212 48.8021 84.839 49.6135 84.9095 50.4248C84.9801 50.9893 85.2976 51.5184 85.7914 51.8006C86.4264 52.1887 87.1672 52.2239 87.8727 52.1887C88.9663 52.0828 90.0246 51.5537 90.6596 50.6718C91.0476 50.0368 91.2945 49.2607 91.1887 48.5199ZM89.7777 49.1549C89.7071 49.6135 89.566 50.0721 89.2485 50.4248C88.8605 50.954 88.1902 51.2715 87.5552 51.2362C87.2025 51.2362 86.8144 51.1656 86.5675 50.8834C86.3911 50.7071 86.3206 50.4601 86.2853 50.1779C86.25 49.1196 86.9556 48.0261 88.0138 47.7791C88.4724 47.6733 89.0368 47.7086 89.3896 48.0261C89.7424 48.3083 89.8129 48.7669 89.7777 49.1549Z" fill="white"/>
<path fill-rule="evenodd" clip-rule="evenodd" d="M116.27 48.4494C116.164 47.8497 115.741 47.3206 115.176 47.0736C114.471 46.7561 113.695 46.7209 112.954 46.8267C111.861 47.0031 110.838 47.6028 110.273 48.5552C109.92 49.1549 109.744 49.8957 109.885 50.6012C109.991 51.1657 110.414 51.6595 110.943 51.9065C111.614 52.2239 112.39 52.2592 113.13 52.1534C114.189 52.0123 115.176 51.4479 115.776 50.566C116.199 49.9663 116.411 49.1902 116.27 48.4494ZM113.483 51.1304C112.989 51.342 112.425 51.342 111.931 51.1657C111.578 51.0246 111.367 50.7071 111.331 50.319C111.226 49.1902 111.966 48.0261 113.095 47.7792C113.554 47.6733 114.048 47.7086 114.436 47.9908C114.718 48.2025 114.894 48.5552 114.894 48.9433C114.859 49.8252 114.33 50.7776 113.483 51.1304Z" fill="white"/>
<path fill-rule="evenodd" clip-rule="evenodd" d="M106.781 50.4248C107.134 50.2132 107.416 49.931 107.733 49.684C108.474 50.5307 109.25 51.342 110.026 52.1534C109.497 52.1534 108.933 52.1534 108.403 52.1534C108.262 52.0828 108.157 51.9417 108.051 51.8359C107.592 51.3773 107.169 50.9187 106.781 50.4248Z" fill="white"/>
</svg>
