<svg width="174" height="174" viewBox="0 0 174 174" fill="none" xmlns="http://www.w3.org/2000/svg">
<path d="M27.9147 59.4856L154.038 59.4322L105.734 46.8359L105.681 20.1754L94.0187 47.1294" fill="white"/>
<path d="M2.8555 88.6813L13.4503 65.0632H21.6432V83.7709L38.4027 65.0632H46.8092L35.8942 88.6546H30.9037L40.1374 68.3457L21.9368 88.6279H16.3592V68.9595L6.992 88.6813" fill="white"/>
<path d="M67.4917 64.9831H49.211L38.5095 88.6279H57.3773L59.2454 84.865H45.1546L48.4104 78.0598H60.6865L62.4211 74.3236H49.9849L52.5202 68.746H65.757" fill="white"/>
<path d="M171.571 64.9831H153.264L142.589 88.6279H161.43L163.325 84.865H149.234L152.49 78.0598H164.766L166.501 74.3236H154.065L156.6 68.746H169.837" fill="white"/>
<path d="M88.0941 66.0773C86.226 64.7696 70.3739 64.9298 70.3739 64.9298L59.619 88.6279C66.6377 88.2543 80.4349 91.2165 87.4537 80.8086C94.4457 70.4006 89.9622 67.3583 88.0941 66.0773ZM84.9184 77.2058C81.0754 86.6797 66.4776 84.6515 66.4776 84.6515C66.4776 84.6515 73.5497 68.8261 73.7898 68.8261C80.4349 68.8261 88.7346 67.7319 84.9184 77.2058Z" fill="white"/>
<path d="M97.061 64.9031H102.238L93.0046 84.9451H106.455L104.64 88.6279H86.1993" fill="white"/>
<path d="M117.21 64.9831H122.2L111.419 88.6279H106.668" fill="white"/>
<path d="M115.262 88.6279L126.097 64.9831H133.756L137.652 84.1445L146.566 64.9831H150.755L140.054 88.6279H133.035L128.765 68.746L119.532 88.6279" fill="white"/>
<path d="M103.039 93.485L76.3785 153.611L78.807 93.485C78.807 93.485 89.5619 106.775 103.039 93.485Z" fill="white"/>
</svg>
